<svg width="45" height="29" viewBox="0 0 45 29" fill="none" xmlns="http://www.w3.org/2000/svg">
<g filter="url(#filter0_d)">
<path d="M14.5 16.2273C12.9813 16.2273 11.5247 15.624 10.4499 14.5501C9.376 13.4753 8.77273 12.0187 8.77273 10.5C8.77273 8.98132 9.376 7.52469 10.4499 6.44987C11.5247 5.376 12.9813 4.77273 14.5 4.77273C16.0187 4.77273 17.4753 5.376 18.5501 6.44987C19.624 7.52469 20.2273 8.98132 20.2273 10.5C20.2273 12.0187 19.624 13.4753 18.5501 14.5501C17.4753 15.624 16.0187 16.2273 14.5 16.2273ZM13.5455 0H15.4545V2.86364H13.5455V0ZM13.5455 18.1364H15.4545V21H13.5455V18.1364ZM6.40068 3.75041L7.75041 2.40068L9.775 4.42527L8.42527 5.775L6.40068 3.75136V3.75041ZM19.225 16.5747L20.5747 15.225L22.5993 17.2496L21.2496 18.5993L19.225 16.5747ZM21.2496 2.39973L22.5993 3.75041L20.5747 5.775L19.225 4.42527L21.2496 2.40068V2.39973ZM8.42527 15.225L9.775 16.5747L7.75041 18.5993L6.40068 17.2496L8.42527 15.225ZM25 9.54545V11.4545H22.1364V9.54545H25ZM6.86364 9.54545V11.4545H4V9.54545H6.86364Z" fill="#EBDB00"/>
</g>
<path d="M28.4494 24.9827C26.7291 24.8762 25.0642 24.3086 23.6145 23.3346C22.1647 22.3607 20.9784 21.013 20.1714 19.4214C19.3633 17.8296 18.9615 16.0475 19.0029 14.2462C19.0443 12.445 19.5287 10.6853 20.4089 9.13635C21.2892 7.5874 22.5369 6.30137 24.0292 5.40193C25.5227 4.50249 27.2123 4.01991 28.935 4.0006C30.6589 3.98128 32.358 4.42589 33.8692 5.29165C35.3804 6.15742 36.6529 7.41521 37.565 8.94406C39.5288 9.00966 41.3945 9.86007 42.7781 11.3202C44.1605 12.7805 44.9545 14.7392 44.9982 16.7935C45.0407 18.8478 44.3294 20.8412 43.0096 22.3634C41.6898 23.8856 39.862 24.8209 37.9018 24.9765V25H28.4494V24.9827Z" fill="#D3D3D3"/>
<defs>
<filter id="filter0_d" x="0" y="0" width="29" height="29" filterUnits="userSpaceOnUse" color-interpolation-filters="sRGB">
<feFlood flood-opacity="0" result="BackgroundImageFix"/>
<feColorMatrix in="SourceAlpha" type="matrix" values="0 0 0 0 0 0 0 0 0 0 0 0 0 0 0 0 0 0 127 0"/>
<feOffset dy="4"/>
<feGaussianBlur stdDeviation="2"/>
<feColorMatrix type="matrix" values="0 0 0 0 0 0 0 0 0 0 0 0 0 0 0 0 0 0 0.25 0"/>
<feBlend mode="normal" in2="BackgroundImageFix" result="effect1_dropShadow"/>
<feBlend mode="normal" in="SourceGraphic" in2="effect1_dropShadow" result="shape"/>
</filter>
</defs>
</svg>
