<svg width="22" height="21" viewBox="0 0 22 21" fill="none" xmlns="http://www.w3.org/2000/svg">
<path d="M14.8591 15.9997L11.7061 12.8467C11.5181 12.6592 11.2641 12.5539 10.9991 12.5539C10.7341 12.5539 10.4802 12.6592 10.2922 12.8467L7.17913 15.9597C5.81213 15.8186 4.50514 15.328 3.38314 14.5352C2.26114 13.7423 1.36313 12.674 0.773128 11.433C0.184128 10.192 -0.0758702 8.8202 0.0191298 7.4497C0.11413 6.0792 0.560143 4.7561 1.31414 3.6079C2.06814 2.4598 3.10514 1.5251 4.32614 0.894104C5.54614 0.263104 6.90812 -0.0431945 8.28112 0.00490553C9.65412 0.0530055 10.9912 0.453801 12.1652 1.1687C13.3382 1.8836 14.3071 2.8886 14.9791 4.0867C15.7981 3.9457 16.6371 3.9764 17.4431 4.1767C18.2501 4.377 19.0061 4.7426 19.6641 5.2504C20.3211 5.7581 20.8662 6.397 21.2642 7.1264C21.6622 7.8558 21.9042 8.66 21.9752 9.4879C22.0462 10.3157 21.9441 11.1493 21.6761 11.9358C21.4081 12.7222 20.9791 13.4444 20.4181 14.0566C19.8561 14.6688 19.1732 15.1576 18.4122 15.4921C17.6522 15.8266 16.8301 15.9994 15.9991 15.9997H14.8602H14.8591ZM9.23114 16.7317L10.9991 14.9637L12.7671 16.7317C13.1171 17.0814 13.3552 17.5268 13.4512 18.0118C13.5472 18.4967 13.4981 18.9993 13.3091 19.4561C13.1191 19.9129 12.7991 20.3033 12.3881 20.578C11.9771 20.8526 11.4931 20.9992 10.9991 20.9992C10.5051 20.9992 10.0212 20.8526 9.61016 20.578C9.19916 20.3033 8.87914 19.9129 8.68914 19.4561C8.50014 18.9993 8.45111 18.4967 8.54711 18.0118C8.64311 17.5268 8.88113 17.0814 9.23114 16.7317Z" fill="#D3D3D3"/>
</svg>
