<svg width="22" height="19" viewBox="0 0 22 19" fill="none" xmlns="http://www.w3.org/2000/svg">
<path d="M0.564969 10.9557C-0.218031 8.9834 -0.186027 6.7807 0.653973 4.8321C1.49497 2.8835 3.07496 1.3487 5.04696 0.565202C7.01996 -0.218198 9.22297 -0.1861 11.171 0.6545C13.12 1.4951 14.655 3.0754 15.438 5.0477C16.276 4.8857 17.14 4.9211 17.963 5.151C18.785 5.3809 19.542 5.7989 20.175 6.3721C20.807 6.9453 21.298 7.6579 21.607 8.4535C21.917 9.249 22.037 10.1057 21.958 10.9557H0.564969ZM2.98097 16.9487H19.981V18.9487H2.98097V16.9487ZM0.980969 12.9487H21.981V14.9487H0.980969V12.9487Z" fill="#D3D3D3"/>
</svg>
