<svg width="23" height="22" viewBox="0 0 23 22" fill="none" xmlns="http://www.w3.org/2000/svg">
<path d="M14.5936 16.5H8.59359V19.5H6.59359V16.248C5.2673 15.905 4.05136 15.227 3.06229 14.279C2.07321 13.331 1.34413 12.145 0.944908 10.834C0.545689 9.524 0.489699 8.133 0.782308 6.794C1.07492 5.456 1.70632 4.215 2.61601 3.191C3.52571 2.167 4.68322 1.393 5.97763 0.943999C7.27205 0.495999 8.66 0.386997 10.0085 0.627997C11.357 0.869997 12.6209 1.454 13.679 2.324C14.7372 3.194 15.5541 4.322 16.0516 5.598C16.8036 5.454 17.5774 5.469 18.3235 5.641C19.0695 5.814 19.7713 6.14 20.384 6.599C20.9967 7.058 21.5067 7.64 21.8815 8.308C22.2562 8.976 22.4874 9.714 22.5602 10.477C22.6331 11.239 22.546 12.008 22.3045 12.735C22.063 13.461 21.6725 14.129 21.1579 14.696C20.6433 15.263 20.016 15.717 19.3162 16.027C18.6163 16.338 17.8593 16.499 17.0936 16.5L16.5936 16.501V19.501H14.5936V16.5ZM10.5936 18.5H12.5936V21.5H10.5936V20V18.5Z" fill="#D3D3D3"/>
</svg>
