<svg width="54" height="19" viewBox="0 0 54 19" fill="none" xmlns="http://www.w3.org/2000/svg">
<path d="M49.9079 17.7334H43.0921C42.1263 17.7338 41.1919 17.5002 40.4537 17.0739C39.7155 16.6476 39.2207 16.0562 39.0585 15.4043C38.8956 14.7524 39.0755 14.0822 39.5649 13.5122C40.055 12.9423 40.8231 12.5094 41.7344 12.2903C41.7037 11.8486 41.8039 11.4071 42.0295 10.9928C42.2551 10.5784 42.6014 10.1997 43.0464 9.8796C43.4922 9.5595 44.0279 9.30469 44.6216 9.13058C45.2152 8.95647 45.8545 8.8667 46.5 8.8667C47.1455 8.8667 47.7848 8.95647 48.3784 9.13058C48.9721 9.30469 49.5078 9.5595 49.9536 9.8796C50.3986 10.1997 50.7449 10.5784 50.9705 10.9928C51.1961 11.4071 51.2963 11.8486 51.2656 12.2903C52.1769 12.5094 52.945 12.9423 53.4351 13.5122C53.9245 14.0822 54.1044 14.7524 53.9415 15.4043C53.7793 16.0562 53.2845 16.6476 52.5463 17.0739C51.8082 17.5002 50.8737 17.7338 49.9079 17.7334Z" fill="#D3D3D3"/>
<path d="M10.9079 17.7334H4.0921C3.1263 17.7338 2.19185 17.5002 1.4537 17.0739C0.715548 16.6476 0.220723 16.0562 0.0585067 15.4043C-0.104391 14.7524 0.0755436 14.0822 0.564918 13.5122C1.05497 12.9423 1.82311 12.5094 2.73439 12.2903C2.70372 11.8486 2.80391 11.4071 3.02951 10.9928C3.25511 10.5784 3.60136 10.1997 4.04643 9.8796C4.49219 9.5595 5.02791 9.30469 5.62157 9.13058C6.21522 8.95647 6.85454 8.8667 7.5 8.8667C8.14546 8.8667 8.78478 8.95647 9.37843 9.13058C9.97209 9.30469 10.5078 9.5595 10.9536 9.8796C11.3986 10.1997 11.7449 10.5784 11.9705 10.9928C12.1961 11.4071 12.2963 11.8486 12.2656 12.2903C13.1769 12.5094 13.945 12.9423 14.4351 13.5122C14.9245 14.0822 15.1044 14.7524 14.9415 15.4043C14.7793 16.0562 14.2845 16.6476 13.5463 17.0739C12.8082 17.5002 11.8737 17.7338 10.9079 17.7334Z" fill="#D3D3D3"/>
<path d="M23.7225 18.9844C22.1345 18.888 20.5978 18.3744 19.2595 17.4932C17.9213 16.612 16.8262 15.3927 16.0813 13.9527C15.3353 12.5125 14.9645 10.9001 15.0027 9.27038C15.0408 7.64071 15.488 6.04858 16.3006 4.64717C17.1131 3.24575 18.2648 2.08219 19.6423 1.26841C21.0209 0.454636 22.5806 0.0180161 24.1708 0.000546367C25.7621 -0.0169345 27.3304 0.385327 28.7254 1.16864C30.1203 1.95195 31.295 3.08995 32.137 4.4732C33.9496 4.53255 35.6718 5.30197 36.949 6.62307C38.2251 7.94422 38.958 9.71645 38.9983 11.5751C39.0376 13.4337 38.381 15.2372 37.1627 16.6145C35.9445 17.9917 34.2572 18.8379 32.4478 18.9788V19H23.7225V18.9844Z" fill="#D3D3D3"/>
</svg>
