<svg width="564" height="166" viewBox="0 0 564 166" fill="none" xmlns="http://www.w3.org/2000/svg">
<path d="M85 45H92L83 58V49H76L85 36V45Z" fill="#03053D"/>
<path d="M476 112C476 110.939 476.421 109.922 477.172 109.172C477.922 108.421 478.939 108 480 108C481.061 108 482.078 108.421 482.828 109.172C483.579 109.922 484 110.939 484 112V117.255C485.223 118.107 486.142 119.326 486.624 120.736C487.106 122.147 487.125 123.674 486.679 125.096C486.233 126.518 485.344 127.76 484.143 128.642C482.942 129.524 481.49 130 480 130C478.51 130 477.058 129.524 475.857 128.642C474.656 127.76 473.767 126.518 473.321 125.096C472.875 123.674 472.894 122.147 473.376 120.736C473.858 119.326 474.777 118.107 476 117.255V112ZM477.144 118.895C476.27 119.503 475.613 120.374 475.269 121.382C474.924 122.389 474.911 123.48 475.229 124.496C475.548 125.511 476.182 126.399 477.041 127.029C477.899 127.659 478.935 127.999 480 127.999C481.065 127.999 482.101 127.659 482.959 127.029C483.818 126.399 484.452 125.511 484.771 124.496C485.089 123.48 485.076 122.389 484.731 121.382C484.387 120.374 483.73 119.503 482.856 118.895L482 118.298V112C482 111.47 481.789 110.961 481.414 110.586C481.039 110.211 480.53 110 480 110C479.47 110 478.961 110.211 478.586 110.586C478.211 110.961 478 111.47 478 112V118.298L477.144 118.895ZM479 119.126V112H481V119.126C481.94 119.372 482.759 119.951 483.304 120.757C483.848 121.562 484.081 122.538 483.958 123.502C483.836 124.467 483.367 125.353 482.638 125.997C481.91 126.641 480.972 126.997 480 127C479.026 127.001 478.085 126.646 477.353 126.003C476.622 125.359 476.151 124.47 476.028 123.504C475.905 122.537 476.139 121.559 476.687 120.753C477.234 119.947 478.056 119.369 479 119.126V119.126ZM480 125C480.53 125 481.039 124.789 481.414 124.414C481.789 124.039 482 123.53 482 123C482 122.47 481.789 121.961 481.414 121.586C481.039 121.211 480.53 121 480 121C479.47 121 478.961 121.211 478.586 121.586C478.211 121.961 478 122.47 478 123C478 123.53 478.211 124.039 478.586 124.414C478.961 124.789 479.47 125 480 125Z" fill="#03053D"/>
<path d="M269 20H259C257.583 20.0009 256.212 19.5004 255.129 18.5871C254.046 17.6739 253.32 16.4068 253.082 15.0103C252.843 13.6137 253.107 12.1778 253.825 10.9568C254.544 9.73579 255.671 8.80844 257.008 8.33896C256.963 7.39262 257.11 6.44694 257.441 5.5592C257.772 4.67146 258.28 3.86014 258.933 3.17438C259.587 2.48863 260.373 1.94272 261.244 1.56972C262.115 1.19672 263.053 1.00439 264 1.00439C264.947 1.00439 265.885 1.19672 266.756 1.56972C267.627 1.94272 268.413 2.48863 269.067 3.17438C269.72 3.86014 270.228 4.67146 270.559 5.5592C270.89 6.44694 271.037 7.39262 270.992 8.33896C272.329 8.80844 273.456 9.73579 274.175 10.9568C274.893 12.1778 275.157 13.6137 274.918 15.0103C274.68 16.4068 273.954 17.6739 272.871 18.5871C271.788 19.5004 270.417 20.0009 269 20ZM259 18H269C269.543 17.999 270.079 17.8876 270.578 17.6726C271.076 17.4576 271.525 17.1435 271.898 16.7494C272.271 16.3552 272.56 15.8893 272.747 15.38C272.935 14.8707 273.016 14.3286 272.987 13.7867C272.958 13.2448 272.819 12.7145 272.579 12.228C272.339 11.7415 272.002 11.309 271.589 10.9568C271.176 10.6046 270.696 10.3401 270.178 10.1794C269.659 10.0187 269.114 9.96514 268.574 10.022C268.91 9.26083 269.051 8.42786 268.984 7.59856C268.916 6.76926 268.643 5.96984 268.189 5.27275C267.735 4.57566 267.114 4.00294 266.382 3.6065C265.651 3.21006 264.832 3.00243 264 3.00243C263.168 3.00243 262.349 3.21006 261.618 3.6065C260.886 4.00294 260.265 4.57566 259.811 5.27275C259.357 5.96984 259.084 6.76926 259.016 7.59856C258.949 8.42786 259.09 9.26083 259.426 10.022C258.886 9.96514 258.341 10.0187 257.822 10.1794C257.304 10.3401 256.824 10.6046 256.411 10.9568C255.998 11.309 255.661 11.7415 255.421 12.228C255.181 12.7145 255.042 13.2448 255.013 13.7867C254.984 14.3286 255.065 14.8707 255.253 15.38C255.44 15.8893 255.729 16.3552 256.102 16.7494C256.475 17.1435 256.924 17.4576 257.422 17.6726C257.921 17.8876 258.457 17.999 259 18V18Z" fill="#03053D"/>
<path d="M333.5 5C331.776 5 330.123 5.68482 328.904 6.90381C327.685 8.12279 327 9.77609 327 11.5C327 13.2239 327.685 14.8772 328.904 16.0962C330.123 17.3152 331.776 18 333.5 18H340.5C341.131 17.9994 341.755 17.866 342.331 17.6085C342.908 17.351 343.423 16.9752 343.845 16.5054C344.266 16.0357 344.584 15.4825 344.778 14.8818C344.972 14.2811 345.037 13.6464 344.97 13.0188C344.902 12.3912 344.704 11.7849 344.386 11.2392C344.069 10.6934 343.641 10.2205 343.129 9.85111C342.617 9.48173 342.034 9.22414 341.416 9.09508C340.798 8.96602 340.16 8.96838 339.543 9.102C339.062 7.89174 338.229 6.8537 337.152 6.12233C336.074 5.39096 334.802 4.99997 333.5 5ZM340.5 20H333.5C332.02 19.9996 330.566 19.613 329.282 18.8783C327.997 18.1436 326.927 17.0862 326.176 15.8109C325.426 14.5356 325.021 13.0864 325.003 11.6068C324.984 10.1271 325.352 8.66825 326.07 7.37446C326.789 6.08068 327.832 4.99681 329.098 4.23006C330.363 3.46331 331.807 3.04026 333.286 3.00273C334.766 2.96521 336.229 3.31453 337.532 4.01612C338.835 4.71772 339.932 5.74729 340.715 7.003C342.423 7.05468 344.041 7.77661 345.221 9.01261C346.4 10.2486 347.046 11.8993 347.017 13.6075C346.989 15.3158 346.29 16.9442 345.07 18.1405C343.85 19.3368 342.208 20.0048 340.5 20V20Z" fill="#03053D"/>
<path d="M519.86 89L516.707 85.847C516.519 85.6595 516.265 85.5542 516 85.5542C515.735 85.5542 515.481 85.6595 515.293 85.847L512.18 88.96C510.813 88.8189 509.506 88.3283 508.384 87.5355C507.262 86.7426 506.364 85.6743 505.774 84.4333C505.185 83.1923 504.925 81.8205 505.02 80.45C505.115 79.0795 505.561 77.7564 506.315 76.6082C507.069 75.4601 508.106 74.5254 509.327 73.8944C510.547 73.2634 511.909 72.9571 513.282 73.0052C514.655 73.0533 515.992 73.4541 517.166 74.169C518.339 74.8839 519.308 75.8889 519.98 77.087C520.799 76.946 521.638 76.9767 522.444 77.177C523.251 77.3773 524.007 77.7429 524.665 78.2507C525.322 78.7584 525.867 79.3973 526.265 80.1267C526.663 80.8561 526.905 81.6603 526.976 82.4882C527.047 83.316 526.945 84.1496 526.677 84.9361C526.409 85.7225 525.98 86.4447 525.419 87.0569C524.857 87.6691 524.174 88.1579 523.413 88.4924C522.653 88.8269 521.831 88.9997 521 89H519.861H519.86ZM514.232 89.732L516 87.964L517.768 89.732C518.118 90.0817 518.356 90.5271 518.452 91.0121C518.548 91.497 518.499 91.9996 518.31 92.4564C518.12 92.9132 517.8 93.3036 517.389 93.5783C516.978 93.8529 516.494 93.9995 516 93.9995C515.506 93.9995 515.022 93.8529 514.611 93.5783C514.2 93.3036 513.88 92.9132 513.69 92.4564C513.501 91.9996 513.452 91.497 513.548 91.0121C513.644 90.5271 513.882 90.0817 514.232 89.732V89.732Z" fill="#03053D"/>
<path d="M474.083 48C473.938 47.14 473.983 46.2588 474.214 45.4178C474.445 44.5768 474.856 43.7962 475.419 43.1304C475.982 42.4646 476.684 41.9295 477.475 41.5625C478.266 41.1956 479.128 41.0055 480 41.0055C480.872 41.0055 481.734 41.1956 482.525 41.5625C483.316 41.9295 484.018 42.4646 484.581 43.1304C485.144 43.7962 485.555 44.5768 485.786 45.4178C486.017 46.2588 486.062 47.14 485.917 48H483.874C484.026 47.4091 484.041 46.7913 483.917 46.1938C483.794 45.5963 483.535 45.035 483.161 44.5528C482.787 44.0707 482.308 43.6804 481.76 43.412C481.212 43.1435 480.61 43.0039 480 43.0039C479.39 43.0039 478.788 43.1435 478.24 43.412C477.692 43.6804 477.213 44.0707 476.839 44.5528C476.465 45.035 476.206 45.5963 476.083 46.1938C475.959 46.7913 475.974 47.4091 476.126 48H474.083ZM470 50H480V52H470V50ZM482 50H490V52H482V50ZM484 54H488V56H484V54ZM472 54H482V56H472V54ZM479 36H481V39H479V36ZM471.515 39.929L472.929 38.515L475.05 40.636L473.636 42.05L471.515 39.93V39.929ZM487.07 38.515L488.484 39.929L486.363 42.05L484.949 40.636L487.07 38.515V38.515ZM491 46V48H488V46H491ZM472 46V48H469V46H472Z" fill="#03053D"/>
<path d="M190.5 160H184V158H190.5C191.139 158 191.765 158.175 192.312 158.506C192.858 158.837 193.303 159.311 193.6 159.877C193.896 160.443 194.032 161.079 193.992 161.716C193.953 162.354 193.739 162.968 193.375 163.493C193.012 164.018 192.511 164.434 191.928 164.695C191.345 164.955 190.702 165.052 190.068 164.973C189.434 164.894 188.834 164.644 188.332 164.248C187.83 163.853 187.446 163.328 187.222 162.73L189.095 162.027C189.191 162.283 189.356 162.508 189.571 162.678C189.786 162.847 190.043 162.955 190.315 162.988C190.586 163.022 190.862 162.981 191.112 162.869C191.362 162.757 191.576 162.579 191.732 162.354C191.888 162.129 191.98 161.866 191.996 161.593C192.013 161.319 191.955 161.047 191.828 160.804C191.701 160.562 191.511 160.359 191.276 160.217C191.042 160.075 190.774 160 190.5 160ZM185 154H198.5C199.139 154 199.765 154.175 200.312 154.506C200.858 154.837 201.303 155.311 201.6 155.877C201.896 156.443 202.032 157.079 201.992 157.716C201.953 158.354 201.739 158.968 201.375 159.493C201.012 160.018 200.511 160.434 199.928 160.695C199.345 160.955 198.702 161.052 198.068 160.973C197.434 160.894 196.834 160.644 196.332 160.248C195.83 159.853 195.446 159.328 195.222 158.73L197.095 158.027C197.191 158.283 197.356 158.508 197.571 158.678C197.786 158.847 198.043 158.955 198.315 158.988C198.586 159.022 198.862 158.981 199.112 158.869C199.362 158.757 199.576 158.579 199.732 158.354C199.888 158.129 199.98 157.866 199.996 157.593C200.013 157.319 199.955 157.047 199.828 156.804C199.701 156.562 199.511 156.359 199.276 156.217C199.042 156.075 198.774 156 198.5 156H185C184.204 156 183.441 155.684 182.879 155.121C182.316 154.558 182 153.795 182 153C182 152.204 182.316 151.441 182.879 150.878C183.441 150.316 184.204 150 185 150H193.5C193.774 150 194.042 149.925 194.276 149.783C194.511 149.641 194.701 149.438 194.828 149.195C194.955 148.953 195.013 148.68 194.996 148.407C194.98 148.134 194.888 147.87 194.732 147.645C194.576 147.42 194.362 147.242 194.112 147.13C193.862 147.019 193.586 146.977 193.315 147.011C193.043 147.045 192.786 147.152 192.571 147.322C192.356 147.491 192.191 147.716 192.095 147.973L190.222 147.271C190.51 146.504 191.059 145.862 191.772 145.458C192.485 145.053 193.317 144.912 194.124 145.058C194.93 145.204 195.66 145.629 196.185 146.258C196.711 146.887 196.999 147.68 197 148.5C197 149.428 196.631 150.318 195.975 150.975C195.318 151.631 194.428 152 193.5 152H185C184.735 152 184.48 152.105 184.293 152.293C184.105 152.48 184 152.735 184 153C184 153.265 184.105 153.519 184.293 153.707C184.48 153.894 184.735 154 185 154Z" fill="#03053D"/>
<path d="M76.5 9C76.0404 9 75.5852 8.90947 75.1606 8.73358C74.736 8.55769 74.3501 8.29988 74.0251 7.97487C73.7001 7.64987 73.4423 7.26403 73.2664 6.83939C73.0905 6.41475 73 5.95963 73 5.5C73 5.04037 73.0905 4.58525 73.2664 4.16061C73.4423 3.73597 73.7001 3.35013 74.0251 3.02513C74.3501 2.70012 74.736 2.44231 75.1606 2.26642C75.5852 2.09053 76.0404 2 76.5 2C77.4283 2 78.3185 2.36875 78.9749 3.02513C79.6313 3.6815 80 4.57174 80 5.5C80 6.42826 79.6313 7.3185 78.9749 7.97487C78.3185 8.63125 77.4283 9 76.5 9V9ZM76.5 7C76.8978 7 77.2794 6.84196 77.5607 6.56066C77.842 6.27936 78 5.89782 78 5.5C78 5.10218 77.842 4.72064 77.5607 4.43934C77.2794 4.15804 76.8978 4 76.5 4C76.1022 4 75.7206 4.15804 75.4393 4.43934C75.158 4.72064 75 5.10218 75 5.5C75 5.89782 75.158 6.27936 75.4393 6.56066C75.7206 6.84196 76.1022 7 76.5 7V7ZM94 9H92C92 7.93913 91.5786 6.92172 90.8284 6.17157C90.0783 5.42143 89.0609 5 88 5C86.9391 5 85.9217 5.42143 85.1716 6.17157C84.4214 6.92172 84 7.93913 84 9V14C84 15.0609 84.4214 16.0783 85.1716 16.8284C85.9217 17.5786 86.9391 18 88 18C89.0609 18 90.0783 17.5786 90.8284 16.8284C91.5786 16.0783 92 15.0609 92 14H94C94 15.5913 93.3679 17.1174 92.2426 18.2426C91.1174 19.3679 89.5913 20 88 20C86.4087 20 84.8826 19.3679 83.7574 18.2426C82.6321 17.1174 82 15.5913 82 14V9C82 7.4087 82.6321 5.88258 83.7574 4.75736C84.8826 3.63214 86.4087 3 88 3C89.5913 3 91.1174 3.63214 92.2426 4.75736C93.3679 5.88258 94 7.4087 94 9V9Z" fill="#03053D"/>
<path d="M190 77C190 78.4001 190.367 79.7757 191.065 80.9895C191.762 82.2032 192.767 83.2126 193.977 83.9167C195.187 84.6208 196.561 84.995 197.961 85.0019C199.361 85.0088 200.738 84.6482 201.955 83.956C201.474 89.03 197.2 93 192 93C186.477 93 182 88.523 182 83C182 77.8 185.97 73.526 191.044 73.045C190.358 74.2499 189.998 75.6133 190 77V77ZM184 83C184 85.1217 184.843 87.1566 186.343 88.6569C187.843 90.1571 189.878 91 192 91C193.413 90.9999 194.802 90.6256 196.024 89.9151C197.246 89.2047 198.258 88.1834 198.957 86.955C198.641 86.985 198.321 87 198 87C192.477 87 188 82.523 188 77C188 76.679 188.015 76.36 188.045 76.043C186.817 76.7423 185.795 77.7544 185.085 78.9763C184.374 80.1983 184 81.5865 184 83V83ZM198.164 73.291L199 73.5V74.5L198.164 74.709C197.812 74.7969 197.491 74.9788 197.235 75.235C196.979 75.4913 196.797 75.8124 196.709 76.164L196.5 77H195.5L195.291 76.164C195.203 75.8124 195.021 75.4913 194.765 75.235C194.509 74.9788 194.188 74.7969 193.836 74.709L193 74.5V73.5L193.836 73.291C194.187 73.2029 194.508 73.021 194.764 72.7648C195.02 72.5085 195.202 72.1875 195.29 71.836L195.5 71H196.5L196.709 71.836C196.797 72.1876 196.979 72.5087 197.235 72.765C197.491 73.0212 197.812 73.2031 198.164 73.291V73.291ZM203.164 78.291L204 78.5V79.5L203.164 79.709C202.812 79.7969 202.491 79.9788 202.235 80.235C201.979 80.4913 201.797 80.8124 201.709 81.164L201.5 82H200.5L200.291 81.164C200.203 80.8124 200.021 80.4913 199.765 80.235C199.509 79.9788 199.188 79.7969 198.836 79.709L198 79.5V78.5L198.836 78.291C199.188 78.2031 199.509 78.0212 199.765 77.765C200.021 77.5087 200.203 77.1876 200.291 76.836L200.5 76H201.5L201.709 76.836C201.797 77.1876 201.979 77.5087 202.235 77.765C202.491 78.0212 202.812 78.2031 203.164 78.291Z" fill="#03053D"/>
<path d="M372 54C372.398 54 372.779 54.158 373.061 54.4393C373.342 54.7206 373.5 55.1022 373.5 55.5C373.5 55.8978 373.342 56.2794 373.061 56.5607C372.779 56.842 372.398 57 372 57C371.602 57 371.221 56.842 370.939 56.5607C370.658 56.2794 370.5 55.8978 370.5 55.5C370.5 55.1022 370.658 54.7206 370.939 54.4393C371.221 54.158 371.602 54 372 54ZM379.5 54C379.898 54 380.279 54.158 380.561 54.4393C380.842 54.7206 381 55.1022 381 55.5C381 55.8978 380.842 56.2794 380.561 56.5607C380.279 56.842 379.898 57 379.5 57C379.102 57 378.721 56.842 378.439 56.5607C378.158 56.2794 378 55.8978 378 55.5C378 55.1022 378.158 54.7206 378.439 54.4393C378.721 54.158 379.102 54 379.5 54ZM364.5 54C364.898 54 365.279 54.158 365.561 54.4393C365.842 54.7206 366 55.1022 366 55.5C366 55.8978 365.842 56.2794 365.561 56.5607C365.279 56.842 364.898 57 364.5 57C364.102 57 363.721 56.842 363.439 56.5607C363.158 56.2794 363 55.8978 363 55.5C363 55.1022 363.158 54.7206 363.439 54.4393C363.721 54.158 364.102 54 364.5 54V54ZM377 42C378.326 42 379.598 42.5268 380.536 43.4645C381.473 44.4021 382 45.6739 382 47C382 48.3261 381.473 49.5979 380.536 50.5355C379.598 51.4732 378.326 52 377 52C375.156 52 373.49 50.96 372 48.878C370.51 50.96 368.844 52 367 52C365.674 52 364.402 51.4732 363.464 50.5355C362.527 49.5979 362 48.3261 362 47C362 45.6739 362.527 44.4021 363.464 43.4645C364.402 42.5268 365.674 42 367 42C368.844 42 370.51 43.04 372 45.122C373.49 43.04 375.156 42 377 42ZM372 37C372.197 37 372.392 37.0388 372.574 37.1142C372.756 37.1896 372.921 37.3001 373.061 37.4393C373.2 37.5786 373.31 37.744 373.386 37.926C373.461 38.108 373.5 38.303 373.5 38.5C373.5 38.697 373.461 38.892 373.386 39.074C373.31 39.256 373.2 39.4214 373.061 39.5607C372.921 39.6999 372.756 39.8104 372.574 39.8858C372.392 39.9612 372.197 40 372 40C371.602 40 371.221 39.842 370.939 39.5607C370.658 39.2794 370.5 38.8978 370.5 38.5C370.5 38.1022 370.658 37.7206 370.939 37.4393C371.221 37.158 371.602 37 372 37V37ZM364.5 37C364.697 37 364.892 37.0388 365.074 37.1142C365.256 37.1896 365.421 37.3001 365.561 37.4393C365.7 37.5786 365.81 37.744 365.886 37.926C365.961 38.108 366 38.303 366 38.5C366 38.697 365.961 38.892 365.886 39.074C365.81 39.256 365.7 39.4214 365.561 39.5607C365.421 39.6999 365.256 39.8104 365.074 39.8858C364.892 39.9612 364.697 40 364.5 40C364.102 40 363.721 39.842 363.439 39.5607C363.158 39.2794 363 38.8978 363 38.5C363 38.1022 363.158 37.7206 363.439 37.4393C363.721 37.158 364.102 37 364.5 37V37ZM379.5 37C379.697 37 379.892 37.0388 380.074 37.1142C380.256 37.1896 380.421 37.3001 380.561 37.4393C380.7 37.5786 380.81 37.744 380.886 37.926C380.961 38.108 381 38.303 381 38.5C381 38.697 380.961 38.892 380.886 39.074C380.81 39.256 380.7 39.4214 380.561 39.5607C380.421 39.6999 380.256 39.8104 380.074 39.8858C379.892 39.9612 379.697 40 379.5 40C379.102 40 378.721 39.842 378.439 39.5607C378.158 39.2794 378 38.8978 378 38.5C378 38.1022 378.158 37.7206 378.439 37.4393C378.721 37.158 379.102 37 379.5 37V37Z" fill="#03053D"/>
<path d="M76 75H80V77H76V75ZM88 90H92V92H88V90ZM74 80H84V82H74V80ZM86 80H92V82H86V80ZM76 85H82V87H76V85ZM84 85H94V87H84V85ZM82 75H94V77H82V75ZM74 90H86V92H74V90Z" fill="#03053D"/>
<path d="M48 58C49.9891 58 51.8968 57.2098 53.3033 55.8033C54.7098 54.3968 55.5 52.4891 55.5 50.5C55.5 49.634 55.27 48.803 55 48.03C53.333 49.677 52.067 50.5 51.2 50.5C55.195 43.5 53 40.5 47 36.5C47.5 41.5 44.204 43.774 42.862 45.037C41.7673 46.0667 41.0072 47.4015 40.6803 48.8683C40.3533 50.3352 40.4746 51.8664 41.0283 53.2635C41.5821 54.6606 42.5428 55.8592 43.7859 56.7037C45.029 57.5483 46.4972 57.9999 48 58V58ZM48.71 40.235C51.951 42.985 51.967 45.122 49.463 49.509C48.702 50.842 49.665 52.5 51.2 52.5C51.888 52.5 52.584 52.3 53.319 51.905C53.1011 52.728 52.6952 53.4892 52.1332 54.1286C51.5711 54.768 50.8683 55.2682 50.0801 55.5899C49.2918 55.9115 48.4397 56.0458 47.5908 55.9821C46.7418 55.9184 45.9192 55.6585 45.1878 55.2229C44.4564 54.7873 43.8361 54.1878 43.3757 53.4717C42.9153 52.7556 42.6275 51.9424 42.5348 51.0961C42.4422 50.2498 42.5472 49.3936 42.8417 48.5948C43.1362 47.7961 43.6122 47.0766 44.232 46.493C44.358 46.375 44.997 45.808 45.025 45.783C45.449 45.403 45.798 45.066 46.143 44.697C47.373 43.379 48.257 41.917 48.709 40.235H48.71Z" fill="#03053D"/>
<path d="M444 75C450.075 75 455 79.925 455 86V91H452V86C452 83.9216 451.191 81.9247 449.745 80.4323C448.298 78.9398 446.327 78.069 444.25 78.004L444 78C441.922 78 439.925 78.8089 438.432 80.2555C436.94 81.702 436.069 83.6726 436.004 85.75L436 86V91H433V86C433 79.925 437.925 75 444 75ZM444 79C445.857 79 447.637 79.7375 448.95 81.0503C450.263 82.363 451 84.1435 451 86V91H448V86C448 84.9738 447.606 83.9868 446.898 83.2432C446.191 82.4996 445.225 82.0563 444.2 82.005L444 82C442.974 82 441.987 82.3944 441.243 83.1017C440.5 83.809 440.056 84.775 440.005 85.8L440 86V91H437V86C437 84.1435 437.737 82.363 439.05 81.0503C440.363 79.7375 442.143 79 444 79V79ZM444 83C444.796 83 445.559 83.3161 446.121 83.8787C446.684 84.4413 447 85.2044 447 86V91H441V86C441 85.2044 441.316 84.4413 441.879 83.8787C442.441 83.3161 443.204 83 444 83V83Z" fill="#03053D"/>
<path d="M557 125V123H557.5C558.077 123 558.645 122.857 559.154 122.584C559.662 122.312 560.095 121.917 560.415 121.437C560.734 120.956 560.93 120.404 560.984 119.83C561.038 119.255 560.95 118.676 560.726 118.144C560.503 117.612 560.151 117.144 559.703 116.78C559.254 116.417 558.723 116.17 558.156 116.062C557.59 115.954 557.005 115.987 556.454 116.16C555.904 116.332 555.404 116.638 555 117.05V117C555 115.9 554.697 114.821 554.125 113.882C553.553 112.942 552.734 112.178 551.757 111.673C550.78 111.167 549.683 110.94 548.586 111.016C547.488 111.092 546.433 111.468 545.535 112.104C544.637 112.739 543.931 113.609 543.494 114.618C543.057 115.627 542.906 116.737 543.057 117.827C543.208 118.916 543.656 119.943 544.351 120.795C545.047 121.648 545.963 122.292 547 122.659V124.748C545.674 124.405 544.458 123.727 543.469 122.779C542.48 121.831 541.751 120.645 541.351 119.334C540.952 118.024 540.896 116.633 541.189 115.294C541.481 113.956 542.113 112.715 543.022 111.691C543.932 110.666 545.09 109.893 546.384 109.444C547.678 108.995 549.066 108.887 550.415 109.128C551.763 109.37 553.027 109.954 554.085 110.824C555.144 111.694 555.961 112.821 556.458 114.098C557.21 113.954 557.984 113.969 558.73 114.141C559.476 114.313 560.178 114.64 560.79 115.099C561.403 115.558 561.913 116.14 562.288 116.808C562.663 117.476 562.894 118.214 562.967 118.977C563.04 119.739 562.952 120.508 562.711 121.234C562.469 121.961 562.079 122.629 561.564 123.196C561.05 123.763 560.422 124.216 559.723 124.527C559.023 124.838 558.266 124.999 557.5 125L557 125.001V125ZM553 123.005H556L551 129.505V125.005H548L553 118.5V123.005Z" fill="#03053D"/>
<path d="M228 125C226.409 125 224.883 124.368 223.757 123.243C222.632 122.117 222 120.591 222 119C222 117.409 222.632 115.883 223.757 114.757C224.883 113.632 226.409 113 228 113C229.591 113 231.117 113.632 232.243 114.757C233.368 115.883 234 117.409 234 119C234 120.591 233.368 122.117 232.243 123.243C231.117 124.368 229.591 125 228 125ZM227 108H229V111H227V108ZM227 127H229V130H227V127ZM219.515 111.929L220.929 110.515L223.05 112.636L221.636 114.05L219.515 111.93V111.929ZM232.95 125.364L234.364 123.95L236.485 126.071L235.071 127.485L232.95 125.364ZM235.071 110.514L236.485 111.929L234.364 114.05L232.95 112.636L235.071 110.515V110.514ZM221.636 123.95L223.05 125.364L220.929 127.485L219.515 126.071L221.636 123.95V123.95ZM239 118V120H236V118H239ZM220 118V120H217V118H220Z" fill="#03053D"/>
<path d="M260.67 76.007C261.326 74.6186 262.421 73.4846 263.785 72.7797C265.15 72.0747 266.708 71.838 268.22 72.106C267.962 72.8959 267.928 73.7417 268.122 74.5497C268.315 75.3578 268.728 76.0965 269.316 76.684C269.904 77.2715 270.642 77.6849 271.45 77.8783C272.258 78.0718 273.104 78.0378 273.894 77.78C273.964 78.176 274 78.584 274 79C274.002 80.1794 273.704 81.34 273.135 82.373C273.973 83.1116 274.567 84.0881 274.837 85.1724C275.106 86.2567 275.039 87.3975 274.645 88.4428C274.25 89.4882 273.546 90.3885 272.627 91.024C271.708 91.6594 270.617 91.9999 269.5 92H261C258.908 91.9988 256.899 91.1779 255.405 89.7133C253.91 88.2487 253.049 86.257 253.006 84.165C252.963 82.0731 253.741 80.0476 255.174 78.5225C256.606 76.9975 258.579 76.0945 260.67 76.007V76.007ZM262.847 76.214C264.107 76.5143 265.276 77.1156 266.253 77.9664C267.23 78.8171 267.986 79.892 268.457 81.099C269.448 80.9092 270.471 80.9939 271.417 81.344C271.643 80.919 271.81 80.459 271.905 79.974C270.393 79.8346 268.977 79.1703 267.903 78.0963C266.83 77.0222 266.166 75.6063 266.027 74.094C264.728 74.352 263.585 75.1143 262.847 76.214V76.214ZM269.5 90C270.077 89.9999 270.645 89.8572 271.154 89.5845C271.662 89.3117 272.095 88.9175 272.415 88.4369C272.734 87.9563 272.93 87.4042 272.984 86.8297C273.038 86.2552 272.95 85.6762 272.726 85.1442C272.503 84.6122 272.151 84.1438 271.703 83.7805C271.254 83.4173 270.723 83.1705 270.156 83.0622C269.59 82.9539 269.005 82.9874 268.454 83.1597C267.903 83.3321 267.404 83.6379 267 84.05V84C267 82.8133 266.648 81.6533 265.989 80.6666C265.33 79.6799 264.392 78.9108 263.296 78.4567C262.2 78.0026 260.993 77.8838 259.829 78.1153C258.666 78.3468 257.596 78.9182 256.757 79.7574C255.918 80.5965 255.347 81.6656 255.115 82.8295C254.884 83.9933 255.003 85.1997 255.457 86.2961C255.911 87.3925 256.68 88.3295 257.667 88.9888C258.653 89.6481 259.813 90 261 90H269.5Z" fill="#03053D"/>
<path d="M296 119H298V121H292V119H294C294 117.813 294.352 116.653 295.011 115.667C295.67 114.68 296.608 113.911 297.704 113.457C298.8 113.003 300.007 112.884 301.171 113.115C302.334 113.347 303.404 113.918 304.243 114.757C305.082 115.596 305.653 116.666 305.885 117.829C306.116 118.993 305.997 120.2 305.543 121.296C305.089 122.392 304.32 123.33 303.333 123.989C302.347 124.648 301.187 125 300 125V123C300.791 123 301.564 122.765 302.222 122.326C302.88 121.886 303.393 121.262 303.696 120.531C303.998 119.8 304.077 118.996 303.923 118.22C303.769 117.444 303.388 116.731 302.828 116.172C302.269 115.612 301.556 115.231 300.78 115.077C300.004 114.923 299.2 115.002 298.469 115.304C297.738 115.607 297.114 116.12 296.674 116.778C296.235 117.436 296 118.209 296 119ZM294 127H303V129H294V127ZM290 123H298V125H290V123ZM299 108H301V111H299V108ZM291.515 111.929L292.929 110.515L295.05 112.636L293.636 114.05L291.515 111.93V111.929ZM304.95 125.364L306.364 123.95L308.485 126.071L307.071 127.485L304.95 125.364ZM307.071 110.514L308.485 111.929L306.364 114.05L304.95 112.636L307.071 110.515V110.514ZM311 118V120H308V118H311Z" fill="#03053D"/>
<path d="M2 146H22V148H2V146ZM4 150H20V152H4V150ZM8 154H22V156H8V154ZM10 158H18V160H10V158ZM8 162H14V164H8V162Z" fill="#03053D"/>
<path d="M41 123.93C39.8934 123.29 38.9562 122.395 38.2669 121.318C37.5776 120.242 37.1563 119.016 37.0383 117.743C36.9203 116.47 37.109 115.188 37.5886 114.003C38.0682 112.818 38.8247 111.765 39.7948 110.933C40.7649 110.1 41.9204 109.513 43.1643 109.219C44.4083 108.925 45.7046 108.933 46.9447 109.243C48.1848 109.553 49.3325 110.156 50.2917 111.001C51.251 111.846 51.9938 112.908 52.458 114.099C53.8533 113.823 55.3012 114.099 56.4978 114.868C57.6944 115.636 58.5466 116.839 58.8755 118.223C59.2044 119.606 58.9845 121.064 58.2619 122.289C57.5393 123.514 56.3702 124.411 55 124.793V122.663C55.4622 122.444 55.8707 122.126 56.1967 121.732C56.5227 121.337 56.7584 120.876 56.8871 120.381C57.0157 119.886 57.0343 119.369 56.9415 118.866C56.8486 118.363 56.6466 117.886 56.3497 117.469C56.0528 117.053 55.6681 116.706 55.2229 116.455C54.7776 116.203 54.2825 116.051 53.7725 116.012C53.2625 115.972 52.7499 116.044 52.2709 116.224C51.7919 116.403 51.3581 116.686 51 117.051V117C51 115.999 50.7497 115.014 50.2718 114.135C49.7939 113.255 49.1036 112.51 48.2638 111.965C47.4239 111.421 46.4613 111.095 45.4634 111.018C44.4656 110.94 43.4642 111.114 42.5506 111.523C41.6369 111.931 40.84 112.562 40.2324 113.357C39.6247 114.152 39.2257 115.087 39.0716 116.076C38.9174 117.065 39.0132 118.077 39.35 119.019C39.6868 119.962 40.254 120.805 41 121.472V123.93ZM43 123H45V127H43V123ZM51 123H53V127H51V123ZM47 126H49V130H47V126Z" fill="#03053D"/>
<path d="M125.654 144.7L122.872 147.233C124.167 147.624 125.359 148.298 126.362 149.206C129.874 152.406 129.874 157.594 126.362 160.794C123.77 163.154 119.764 164.656 114.346 165.3L117.128 162.767C115.833 162.376 114.641 161.702 113.638 160.794C110.126 157.594 110.105 152.425 113.638 149.206C116.23 146.846 120.237 145.344 125.655 144.7H125.654ZM120 149C116.134 149 113 151.686 113 155C113 158.314 116.134 161 120 161C123.866 161 127 158.314 127 155C127 151.686 123.866 149 120 149ZM120 151.3C122.21 151.3 124 152.957 124 155C124 157.043 122.21 158.7 120 158.7C117.79 158.7 116 157.043 116 155C116 152.957 117.79 151.3 120 151.3ZM120 153.3C118.862 153.3 118 154.097 118 155C118 155.903 118.862 156.7 120 156.7C121.138 156.7 122 155.903 122 155C122 154.097 121.138 153.3 120 153.3Z" fill="#03053D"/>
<path d="M438.083 48C437.938 47.14 437.983 46.2588 438.214 45.4178C438.445 44.5768 438.856 43.7962 439.419 43.1304C439.982 42.4646 440.684 41.9295 441.475 41.5625C442.266 41.1956 443.128 41.0055 444 41.0055C444.872 41.0055 445.734 41.1956 446.525 41.5625C447.316 41.9295 448.018 42.4646 448.581 43.1304C449.144 43.7962 449.555 44.5768 449.786 45.4178C450.017 46.2588 450.062 47.14 449.917 48H438.083ZM434 50H444V52H434V50ZM446 50H454V52H446V50ZM448 54H452V56H448V54ZM436 54H446V56H436V54ZM443 36H445V39H443V36ZM435.515 39.929L436.929 38.515L439.05 40.636L437.636 42.05L435.515 39.93V39.929ZM451.07 38.515L452.484 39.929L450.363 42.05L448.949 40.636L451.07 38.515V38.515ZM455 46V48H452V46H455ZM436 46V48H433V46H436Z" fill="#03053D"/>
<path d="M154.5 160H148V158H154.5C155.139 158 155.765 158.175 156.312 158.506C156.858 158.837 157.303 159.311 157.6 159.877C157.896 160.443 158.032 161.079 157.992 161.716C157.953 162.354 157.739 162.968 157.375 163.493C157.012 164.018 156.511 164.434 155.928 164.695C155.345 164.955 154.702 165.052 154.068 164.973C153.434 164.894 152.834 164.644 152.332 164.248C151.83 163.853 151.446 163.328 151.222 162.73L153.095 162.027C153.191 162.283 153.356 162.508 153.571 162.678C153.786 162.847 154.043 162.955 154.315 162.988C154.586 163.022 154.862 162.981 155.112 162.869C155.362 162.757 155.576 162.579 155.732 162.354C155.888 162.129 155.98 161.866 155.996 161.593C156.013 161.319 155.955 161.047 155.828 160.804C155.701 160.562 155.511 160.359 155.276 160.217C155.042 160.075 154.774 160 154.5 160ZM149 154H162.5C163.139 154 163.765 154.175 164.312 154.506C164.858 154.837 165.303 155.311 165.6 155.877C165.896 156.443 166.032 157.079 165.992 157.716C165.953 158.354 165.739 158.968 165.375 159.493C165.012 160.018 164.511 160.434 163.928 160.695C163.345 160.955 162.702 161.052 162.068 160.973C161.434 160.894 160.834 160.644 160.332 160.248C159.83 159.853 159.446 159.328 159.222 158.73L161.095 158.027C161.191 158.283 161.356 158.508 161.571 158.678C161.786 158.847 162.043 158.955 162.315 158.988C162.586 159.022 162.862 158.981 163.112 158.869C163.362 158.757 163.576 158.579 163.732 158.354C163.888 158.129 163.98 157.866 163.996 157.593C164.013 157.319 163.955 157.047 163.828 156.804C163.701 156.562 163.511 156.359 163.276 156.217C163.042 156.075 162.774 156 162.5 156H149C148.204 156 147.441 155.684 146.879 155.121C146.316 154.558 146 153.795 146 153C146 152.204 146.316 151.441 146.879 150.878C147.441 150.316 148.204 150 149 150H157.5C157.774 150 158.042 149.925 158.276 149.783C158.511 149.641 158.701 149.438 158.828 149.195C158.955 148.953 159.013 148.68 158.996 148.407C158.98 148.134 158.888 147.87 158.732 147.645C158.576 147.42 158.362 147.242 158.112 147.13C157.862 147.019 157.586 146.977 157.315 147.011C157.043 147.045 156.786 147.152 156.571 147.322C156.356 147.491 156.191 147.716 156.095 147.973L154.222 147.271C154.51 146.504 155.059 145.862 155.772 145.458C156.485 145.053 157.317 144.912 158.124 145.058C158.93 145.204 159.66 145.629 160.185 146.258C160.711 146.887 160.999 147.68 161 148.5C161 149.428 160.631 150.318 159.975 150.975C159.318 151.631 158.428 152 157.5 152H149C148.735 152 148.48 152.105 148.293 152.293C148.105 152.48 148 152.735 148 153C148 153.265 148.105 153.519 148.293 153.707C148.48 153.894 148.735 154 149 154Z" fill="#03053D"/>
<path d="M153.822 73.238C153.052 74.9091 152.813 76.7759 153.137 78.5871C153.46 80.3982 154.331 82.0667 155.632 83.3676C156.933 84.6686 158.602 85.5396 160.413 85.8633C162.224 86.187 164.091 85.9478 165.762 85.178C164.768 89.654 160.775 93 156 93C150.477 93 146 88.523 146 83C146 78.225 149.346 74.232 153.822 73.238V73.238ZM162.164 73.291L163 73.5V74.5L162.164 74.709C161.812 74.7969 161.491 74.9788 161.235 75.235C160.979 75.4913 160.797 75.8124 160.709 76.164L160.5 77H159.5L159.291 76.164C159.203 75.8124 159.021 75.4913 158.765 75.235C158.509 74.9788 158.188 74.7969 157.836 74.709L157 74.5V73.5L157.836 73.291C158.187 73.2029 158.508 73.021 158.764 72.7648C159.02 72.5085 159.202 72.1875 159.29 71.836L159.5 71H160.5L160.709 71.836C160.797 72.1876 160.979 72.5087 161.235 72.765C161.491 73.0212 161.812 73.2031 162.164 73.291V73.291ZM167.164 78.291L168 78.5V79.5L167.164 79.709C166.812 79.7969 166.491 79.9788 166.235 80.235C165.979 80.4913 165.797 80.8124 165.709 81.164L165.5 82H164.5L164.291 81.164C164.203 80.8124 164.021 80.4913 163.765 80.235C163.509 79.9788 163.188 79.7969 162.836 79.709L162 79.5V78.5L162.836 78.291C163.188 78.2031 163.509 78.0212 163.765 77.765C164.021 77.5087 164.203 77.1876 164.291 76.836L164.5 76H165.5L165.709 76.836C165.797 77.1876 165.979 77.5087 166.235 77.765C166.491 78.0212 166.812 78.2031 167.164 78.291Z" fill="#03053D"/>
<path d="M112.5 9C112.04 9 111.585 8.90947 111.161 8.73358C110.736 8.55769 110.35 8.29988 110.025 7.97487C109.7 7.64987 109.442 7.26403 109.266 6.83939C109.091 6.41475 109 5.95963 109 5.5C109 5.04037 109.091 4.58525 109.266 4.16061C109.442 3.73597 109.7 3.35013 110.025 3.02513C110.35 2.70012 110.736 2.44231 111.161 2.26642C111.585 2.09053 112.04 2 112.5 2C113.428 2 114.318 2.36875 114.975 3.02513C115.631 3.6815 116 4.57174 116 5.5C116 6.42826 115.631 7.3185 114.975 7.97487C114.318 8.63125 113.428 9 112.5 9V9ZM112.5 7C112.898 7 113.279 6.84196 113.561 6.56066C113.842 6.27936 114 5.89782 114 5.5C114 5.10218 113.842 4.72064 113.561 4.43934C113.279 4.15804 112.898 4 112.5 4C112.102 4 111.721 4.15804 111.439 4.43934C111.158 4.72064 111 5.10218 111 5.5C111 5.89782 111.158 6.27936 111.439 6.56066C111.721 6.84196 112.102 7 112.5 7V7ZM130 9H128C128 7.93913 127.579 6.92172 126.828 6.17157C126.078 5.42143 125.061 5 124 5C122.939 5 121.922 5.42143 121.172 6.17157C120.421 6.92172 120 7.93913 120 9V14C120 15.0609 120.421 16.0783 121.172 16.8284C121.922 17.5786 122.939 18 124 18C125.061 18 126.078 17.5786 126.828 16.8284C127.579 16.0783 128 15.0609 128 14H130C130 15.5913 129.368 17.1174 128.243 18.2426C127.117 19.3679 125.591 20 124 20C122.409 20 120.883 19.3679 119.757 18.2426C118.632 17.1174 118 15.5913 118 14V9C118 7.4087 118.632 5.88258 119.757 4.75736C120.883 3.63214 122.409 3 124 3C125.591 3 127.117 3.63214 128.243 4.75736C129.368 5.88258 130 7.4087 130 9V9Z" fill="#03053D"/>
<path d="M408 54C408.398 54 408.779 54.158 409.061 54.4393C409.342 54.7206 409.5 55.1022 409.5 55.5C409.5 55.8978 409.342 56.2794 409.061 56.5607C408.779 56.842 408.398 57 408 57C407.602 57 407.221 56.842 406.939 56.5607C406.658 56.2794 406.5 55.8978 406.5 55.5C406.5 55.1022 406.658 54.7206 406.939 54.4393C407.221 54.158 407.602 54 408 54ZM415.5 54C415.898 54 416.279 54.158 416.561 54.4393C416.842 54.7206 417 55.1022 417 55.5C417 55.8978 416.842 56.2794 416.561 56.5607C416.279 56.842 415.898 57 415.5 57C415.102 57 414.721 56.842 414.439 56.5607C414.158 56.2794 414 55.8978 414 55.5C414 55.1022 414.158 54.7206 414.439 54.4393C414.721 54.158 415.102 54 415.5 54ZM400.5 54C400.898 54 401.279 54.158 401.561 54.4393C401.842 54.7206 402 55.1022 402 55.5C402 55.8978 401.842 56.2794 401.561 56.5607C401.279 56.842 400.898 57 400.5 57C400.102 57 399.721 56.842 399.439 56.5607C399.158 56.2794 399 55.8978 399 55.5C399 55.1022 399.158 54.7206 399.439 54.4393C399.721 54.158 400.102 54 400.5 54V54ZM413 42C414.326 42 415.598 42.5268 416.536 43.4645C417.473 44.4021 418 45.6739 418 47C418 48.3261 417.473 49.5979 416.536 50.5355C415.598 51.4732 414.326 52 413 52C411.156 52 409.49 50.96 408 48.878C406.51 50.96 404.844 52 403 52C401.674 52 400.402 51.4732 399.464 50.5355C398.527 49.5979 398 48.3261 398 47C398 45.6739 398.527 44.4021 399.464 43.4645C400.402 42.5268 401.674 42 403 42C404.844 42 406.51 43.04 408 45.122C409.49 43.04 411.156 42 413 42ZM403 44C402.204 44 401.441 44.3161 400.879 44.8787C400.316 45.4413 400 46.2044 400 47C400 47.7956 400.316 48.5587 400.879 49.1213C401.441 49.6839 402.204 50 403 50C404.254 50 405.51 49.125 406.759 47.146L406.848 46.999L406.758 46.854C405.561 44.958 404.358 44.074 403.157 44.004L403 44ZM413 44C411.746 44 410.49 44.875 409.241 46.854L409.151 47L409.241 47.146C410.439 49.042 411.641 49.926 412.843 49.996L413 50C413.796 50 414.559 49.6839 415.121 49.1213C415.684 48.5587 416 47.7956 416 47C416 46.2044 415.684 45.4413 415.121 44.8787C414.559 44.3161 413.796 44 413 44ZM408 37C408.197 37 408.392 37.0388 408.574 37.1142C408.756 37.1896 408.921 37.3001 409.061 37.4393C409.2 37.5786 409.31 37.744 409.386 37.926C409.461 38.108 409.5 38.303 409.5 38.5C409.5 38.697 409.461 38.892 409.386 39.074C409.31 39.256 409.2 39.4214 409.061 39.5607C408.921 39.6999 408.756 39.8104 408.574 39.8858C408.392 39.9612 408.197 40 408 40C407.602 40 407.221 39.842 406.939 39.5607C406.658 39.2794 406.5 38.8978 406.5 38.5C406.5 38.1022 406.658 37.7206 406.939 37.4393C407.221 37.158 407.602 37 408 37V37ZM400.5 37C400.697 37 400.892 37.0388 401.074 37.1142C401.256 37.1896 401.421 37.3001 401.561 37.4393C401.7 37.5786 401.81 37.744 401.886 37.926C401.961 38.108 402 38.303 402 38.5C402 38.697 401.961 38.892 401.886 39.074C401.81 39.256 401.7 39.4214 401.561 39.5607C401.421 39.6999 401.256 39.8104 401.074 39.8858C400.892 39.9612 400.697 40 400.5 40C400.102 40 399.721 39.842 399.439 39.5607C399.158 39.2794 399 38.8978 399 38.5C399 38.1022 399.158 37.7206 399.439 37.4393C399.721 37.158 400.102 37 400.5 37V37ZM415.5 37C415.697 37 415.892 37.0388 416.074 37.1142C416.256 37.1896 416.421 37.3001 416.561 37.4393C416.7 37.5786 416.81 37.744 416.886 37.926C416.961 38.108 417 38.303 417 38.5C417 38.697 416.961 38.892 416.886 39.074C416.81 39.256 416.7 39.4214 416.561 39.5607C416.421 39.6999 416.256 39.8104 416.074 39.8858C415.892 39.9612 415.697 40 415.5 40C415.102 40 414.721 39.842 414.439 39.5607C414.158 39.2794 414 38.8978 414 38.5C414 38.1022 414.158 37.7206 414.439 37.4393C414.721 37.158 415.102 37 415.5 37V37Z" fill="#03053D"/>
<path d="M112 75H116V77H112V75ZM124 90H128V92H124V90ZM110 80H115V82H110V80ZM117 80H120V82H117V80ZM122 80H128V82H122V80ZM112 85H118V87H112V85ZM120 85H123V87H120V85ZM125 85H130V87H125V85ZM118 75H130V77H118V75ZM110 90H122V92H110V90Z" fill="#03053D"/>
<path d="M121 44H129L119 59V50H112L121 35V44ZM119 46V42.22L115.532 48H121V52.394L125.263 46H119Z" fill="#03053D"/>
<path d="M297 19.9861C295.544 19.8999 294.135 19.4404 292.908 18.652C291.681 17.8636 290.677 16.7727 289.994 15.4843C289.31 14.1958 288.97 12.7532 289.005 11.2951C289.04 9.83705 289.45 8.41259 290.195 7.15876C290.94 5.90492 291.996 4.8639 293.259 4.13582C294.523 3.40774 295.953 3.0171 297.411 3.00147C298.87 2.98583 300.308 3.34573 301.587 4.04655C302.866 4.74737 303.943 5.76553 304.715 7.00311C306.377 7.05621 307.956 7.7446 309.127 8.92658C310.297 10.1086 310.969 11.6942 311.006 13.3571C311.042 15.02 310.44 16.6336 309.323 17.8658C308.206 19.098 306.659 19.8551 305 19.9811V20.0001H297V19.9861Z" fill="#03053D"/>
<path d="M233 20H223C221.583 20.0009 220.212 19.5004 219.129 18.5871C218.046 17.6739 217.32 16.4068 217.082 15.0103C216.843 13.6137 217.107 12.1778 217.825 10.9568C218.544 9.73579 219.671 8.80844 221.008 8.33896C220.963 7.39262 221.11 6.44694 221.441 5.5592C221.772 4.67146 222.28 3.86014 222.933 3.17438C223.587 2.48863 224.373 1.94272 225.244 1.56972C226.115 1.19672 227.053 1.00439 228 1.00439C228.947 1.00439 229.885 1.19672 230.756 1.56972C231.627 1.94272 232.413 2.48863 233.067 3.17438C233.72 3.86014 234.228 4.67146 234.559 5.5592C234.89 6.44694 235.037 7.39262 234.992 8.33896C236.329 8.80844 237.456 9.73579 238.175 10.9568C238.893 12.1778 239.157 13.6137 238.918 15.0103C238.68 16.4068 237.954 17.6739 236.871 18.5871C235.788 19.5004 234.417 20.0009 233 20Z" fill="#03053D"/>
<path d="M440 117.255V112C440 110.939 440.421 109.922 441.172 109.172C441.922 108.421 442.939 108 444 108C445.061 108 446.078 108.421 446.828 109.172C447.579 109.922 448 110.939 448 112V117.255C449.223 118.107 450.142 119.326 450.624 120.736C451.106 122.147 451.125 123.674 450.679 125.096C450.233 126.518 449.344 127.76 448.143 128.642C446.942 129.524 445.49 130 444 130C442.51 130 441.058 129.524 439.857 128.642C438.656 127.76 437.767 126.518 437.321 125.096C436.875 123.674 436.894 122.147 437.376 120.736C437.858 119.326 438.777 118.107 440 117.255V117.255ZM443 119.126C442.06 119.372 441.241 119.951 440.696 120.757C440.152 121.562 439.919 122.538 440.042 123.502C440.164 124.467 440.633 125.353 441.362 125.997C442.09 126.641 443.028 126.997 444 127C444.974 127.001 445.915 126.646 446.647 126.003C447.378 125.359 447.849 124.47 447.972 123.504C448.095 122.537 447.861 121.559 447.313 120.753C446.766 119.947 445.944 119.369 445 119.126V112H443V119.126Z" fill="#03053D"/>
<path d="M556 89V87H557C557.621 86.9997 558.234 86.8547 558.789 86.5766C559.344 86.2984 559.827 85.8948 560.2 85.3976C560.572 84.9005 560.823 84.3234 560.934 83.7123C561.044 83.1011 561.011 82.4725 560.837 81.8764C560.662 81.2803 560.351 80.7331 559.929 80.278C559.506 79.8228 558.983 79.4724 558.402 79.2544C557.82 79.0365 557.196 78.9569 556.578 79.0221C555.96 79.0873 555.366 79.2954 554.843 79.63C554.595 78.5736 554.065 77.6043 553.31 76.8251C552.555 76.046 551.602 75.4863 550.554 75.2055C549.506 74.9248 548.401 74.9335 547.358 75.2308C546.314 75.5282 545.371 76.1029 544.628 76.8939C543.885 77.6849 543.371 78.6626 543.14 79.7227C542.908 80.7829 542.969 81.8859 543.315 82.9144C543.661 83.9429 544.279 84.8582 545.104 85.5631C545.929 86.2679 546.93 86.7358 548 86.917V88.939C545.981 88.6841 544.135 87.6696 542.838 86.1018C541.541 84.5341 540.889 82.5309 541.017 80.5C541.144 78.4691 542.041 76.563 543.524 75.1697C545.007 73.7764 546.965 73.0005 549 73C550.422 72.9994 551.818 73.3777 553.045 74.0961C554.272 74.8145 555.285 75.8469 555.98 77.087C556.799 76.946 557.638 76.9766 558.445 77.177C559.251 77.3773 560.007 77.7429 560.665 78.2507C561.322 78.7584 561.867 79.3973 562.265 80.1267C562.663 80.8561 562.905 81.6603 562.976 82.4881C563.047 83.316 562.945 84.1496 562.677 84.9361C562.409 85.7225 561.98 86.4447 561.419 87.0569C560.857 87.6691 560.174 88.1579 559.413 88.4924C558.653 88.8269 557.831 88.9997 557 89H556ZM550.232 89.732L552 87.964L553.768 89.732C554.118 90.0817 554.356 90.5271 554.452 91.0121C554.548 91.497 554.499 91.9996 554.31 92.4564C554.12 92.9132 553.8 93.3036 553.389 93.5783C552.978 93.8529 552.494 93.9995 552 93.9995C551.506 93.9995 551.022 93.8529 550.611 93.5783C550.2 93.3036 549.88 92.9132 549.69 92.4564C549.501 91.9996 549.452 91.497 549.548 91.0121C549.644 90.5271 549.882 90.0817 550.232 89.732V89.732Z" fill="#03053D"/>
<path d="M15 125H9V128H7V124.748C5.67371 124.405 4.45777 123.727 3.4687 122.779C2.47962 121.831 1.75054 120.645 1.35132 119.334C0.952101 118.024 0.896111 116.633 1.18872 115.294C1.48133 113.956 2.11273 112.715 3.02242 111.691C3.93212 110.667 5.08963 109.893 6.38404 109.444C7.67846 108.996 9.06641 108.887 10.4149 109.128C11.7634 109.37 13.0273 109.954 14.0854 110.824C15.1436 111.694 15.9605 112.822 16.458 114.098C17.21 113.954 17.9838 113.969 18.7299 114.141C19.4759 114.314 20.1777 114.64 20.7904 115.099C21.4031 115.558 21.9131 116.14 22.2879 116.808C22.6626 117.476 22.8938 118.214 22.9666 118.977C23.0395 119.739 22.9524 120.508 22.7109 121.235C22.4694 121.961 22.0789 122.629 21.5643 123.196C21.0497 123.763 20.4224 124.217 19.7226 124.527C19.0227 124.838 18.2657 124.999 17.5 125L17 125.001V128.001H15V125.001V125ZM11 127H13V130H11V127Z" fill="#03053D"/>
<path d="M89.654 144.7L86.872 147.233C88.1671 147.624 89.3591 148.298 90.362 149.206C93.874 152.406 93.874 157.594 90.362 160.794C87.77 163.154 83.764 164.656 78.346 165.3L81.128 162.767C79.833 162.376 78.6409 161.702 77.638 160.794C74.126 157.594 74.105 152.425 77.638 149.206C80.23 146.846 84.237 145.344 89.655 144.7H89.654ZM84 151C81.515 151 79.5 152.79 79.5 155C79.5 157.21 81.515 159 84 159C86.485 159 88.5 157.21 88.5 155C88.5 152.79 86.485 151 84 151Z" fill="#03053D"/>
<path d="M480 75C486.075 75 491 79.925 491 86V91H489V86C489 83.659 488.088 81.41 486.457 79.7305C484.826 78.0509 482.605 77.0729 480.265 77.004L480 77C477.659 77 475.41 77.9122 473.73 79.5431C472.051 81.1739 471.073 83.395 471.004 85.735L471 86V91H469V86C469 79.925 473.925 75 480 75ZM480 79C481.857 79 483.637 79.7375 484.95 81.0503C486.263 82.363 487 84.1435 487 86V91H485V86C485 84.7115 484.502 83.4728 483.611 82.5422C482.72 81.6116 481.504 81.0609 480.217 81.005L480 81C478.712 81.0001 477.473 81.4975 476.542 82.3887C475.612 83.2798 475.061 84.4958 475.005 85.783L475 86V91H473V86C473 84.1435 473.737 82.363 475.05 81.0503C476.363 79.7375 478.143 79 480 79V79ZM480 83C480.796 83 481.559 83.3161 482.121 83.8787C482.684 84.4413 483 85.2044 483 86V91H481V86C481 85.7551 480.91 85.5187 480.747 85.3356C480.585 85.1526 480.36 85.0357 480.117 85.007L480 85C479.755 85 479.519 85.09 479.336 85.2527C479.153 85.4155 479.036 85.6397 479.007 85.883L479 86V91H477V86C477 85.2044 477.316 84.4413 477.879 83.8787C478.441 83.3161 479.204 83 480 83V83Z" fill="#03053D"/>
<path d="M12 58C10.4972 57.9999 9.029 57.5483 7.7859 56.7037C6.54281 55.8592 5.5821 54.6606 5.02834 53.2635C4.47459 51.8664 4.35333 50.3352 4.68028 48.8683C5.00724 47.4015 5.76732 46.0667 6.862 45.037C8.204 43.774 11.5 41.5 11 36.5C17 40.5 20 44.5 14 50.5C15 50.5 16.5 50.5 19 48.03C19.27 48.803 19.5 49.634 19.5 50.5C19.5 52.4891 18.7098 54.3968 17.3033 55.8033C15.8968 57.2098 13.9891 58 12 58Z" fill="#03053D"/>
<path d="M520.988 125L522.204 123.42C522.375 123.198 522.48 122.932 522.508 122.654C522.536 122.375 522.485 122.094 522.361 121.842C522.237 121.591 522.046 121.379 521.808 121.231C521.57 121.083 521.295 121.005 521.015 121.005H519V117.029C519 116.716 518.902 116.41 518.72 116.155C518.537 115.9 518.279 115.709 517.983 115.608C517.686 115.507 517.365 115.502 517.065 115.593C516.765 115.684 516.501 115.866 516.31 116.115L509.945 124.396C508.234 123.688 506.822 122.409 505.949 120.777C505.076 119.145 504.795 117.26 505.156 115.445C505.516 113.629 506.495 111.994 507.925 110.819C509.355 109.644 511.149 109.001 513 109C514.612 109 516.187 109.487 517.517 110.396C518.848 111.306 519.873 112.597 520.458 114.099C521.21 113.954 521.985 113.968 522.731 114.14C523.478 114.312 524.18 114.638 524.793 115.097C525.407 115.557 525.917 116.139 526.292 116.807C526.668 117.475 526.899 118.214 526.972 118.977C527.045 119.739 526.958 120.509 526.716 121.236C526.474 121.963 526.083 122.631 525.568 123.198C525.053 123.765 524.425 124.219 523.724 124.529C523.024 124.839 522.266 125 521.5 125H520.988ZM517 123.005H520L515 129.505V125.005H512L517 118.5V123.005Z" fill="#03053D"/>
<path d="M336 125C334.409 125 332.883 124.368 331.757 123.243C330.632 122.117 330 120.591 330 119C330 117.409 330.632 115.883 331.757 114.757C332.883 113.632 334.409 113 336 113C337.591 113 339.117 113.632 340.243 114.757C341.368 115.883 342 117.409 342 119C342 120.591 341.368 122.117 340.243 123.243C339.117 124.368 337.591 125 336 125ZM336 123C337.061 123 338.078 122.579 338.828 121.828C339.579 121.078 340 120.061 340 119C340 117.939 339.579 116.922 338.828 116.172C338.078 115.421 337.061 115 336 115C334.939 115 333.922 115.421 333.172 116.172C332.421 116.922 332 117.939 332 119C332 120.061 332.421 121.078 333.172 121.828C333.922 122.579 334.939 123 336 123V123ZM335 108H337V111H335V108ZM335 127H337V130H335V127ZM327.515 111.929L328.929 110.515L331.05 112.636L329.636 114.05L327.515 111.93V111.929ZM340.95 125.364L342.364 123.95L344.485 126.071L343.071 127.485L340.95 125.364ZM343.071 110.514L344.485 111.929L342.364 114.05L340.95 112.636L343.071 110.515V110.514ZM329.636 123.95L331.05 125.364L328.929 127.485L327.515 126.071L329.636 123.95V123.95ZM347 118V120H344V118H347ZM328 118V120H325V118H328Z" fill="#03053D"/>
<path d="M224.67 76.007C225.326 74.6186 226.421 73.4846 227.785 72.7797C229.15 72.0747 230.708 71.838 232.22 72.106C231.962 72.8959 231.928 73.7417 232.122 74.5497C232.315 75.3578 232.728 76.0965 233.316 76.684C233.904 77.2715 234.642 77.6849 235.45 77.8783C236.258 78.0718 237.104 78.0378 237.894 77.78C237.964 78.176 238 78.584 238 79C238.002 80.1794 237.704 81.34 237.135 82.373C237.973 83.1116 238.567 84.0881 238.837 85.1724C239.106 86.2567 239.039 87.3975 238.645 88.4428C238.25 89.4882 237.546 90.3885 236.627 91.024C235.708 91.6594 234.617 91.9999 233.5 92H225C222.908 91.9988 220.899 91.1779 219.405 89.7133C217.91 88.2487 217.049 86.257 217.006 84.165C216.963 82.0731 217.741 80.0476 219.174 78.5225C220.606 76.9975 222.579 76.0945 224.67 76.007V76.007ZM226.847 76.214C228.107 76.5143 229.276 77.1156 230.253 77.9664C231.23 78.8171 231.986 79.892 232.457 81.099C233.448 80.9092 234.471 80.9939 235.417 81.344C235.643 80.919 235.81 80.459 235.905 79.974C234.393 79.8346 232.977 79.1703 231.903 78.0963C230.83 77.0222 230.166 75.6063 230.027 74.094C228.728 74.352 227.585 75.1143 226.847 76.214V76.214Z" fill="#03053D"/>
<path d="M38 146H58V148H38V146ZM40 150H56V152H40V150ZM44 154H58V156H44V154ZM46 158H54V160H46V158ZM44 162H50V164H44V162Z" fill="#03053D"/>
<path d="M258.341 121C257.916 119.799 257.885 118.495 258.251 117.275C258.617 116.055 259.362 114.983 260.378 114.215C261.394 113.447 262.627 113.021 263.901 113.001C265.174 112.98 266.421 113.365 267.461 114.1C268.501 114.836 269.28 115.882 269.686 117.09C270.091 118.297 270.102 119.602 269.716 120.816C269.331 122.03 268.569 123.089 267.542 123.842C266.514 124.594 265.274 125 264 125V121H258.341ZM258 127H267V129H258V127ZM253 118H256V120H253V118ZM254 123H262V125H254V123ZM263 108H265V111H263V108ZM255.515 111.929L256.929 110.515L259.05 112.636L257.636 114.05L255.515 111.93V111.929ZM268.95 125.364L270.364 123.95L272.485 126.071L271.071 127.485L268.95 125.364ZM271.071 110.514L272.485 111.929L270.364 114.05L268.95 112.636L271.071 110.515V110.514ZM275 118V120H272V118H275Z" fill="#03053D"/>
<path d="M189.984 112.06C190.39 111.287 190.947 110.604 191.622 110.052C192.297 109.499 193.077 109.088 193.914 108.843C194.752 108.598 195.63 108.524 196.497 108.626C197.364 108.728 198.201 109.003 198.959 109.435C199.717 109.868 200.38 110.448 200.909 111.142C201.438 111.836 201.822 112.63 202.037 113.475C202.253 114.321 202.296 115.201 202.164 116.064C202.032 116.926 201.728 117.753 201.27 118.496C202.072 119.251 202.629 120.23 202.868 121.306C203.107 122.381 203.018 123.504 202.612 124.528C202.206 125.552 201.501 126.431 200.59 127.05C199.678 127.669 198.602 128 197.5 128L189 127.999C187.908 127.998 186.829 127.774 185.827 127.34C184.825 126.906 183.923 126.272 183.175 125.477C182.428 124.681 181.851 123.741 181.481 122.714C181.11 121.687 180.954 120.596 181.021 119.506C181.089 118.417 181.378 117.352 181.872 116.379C182.366 115.406 183.054 114.543 183.893 113.846C184.733 113.148 185.706 112.63 186.754 112.323C187.801 112.015 188.901 111.926 189.984 112.059V112.06ZM192.055 112.604C193.054 113.018 193.959 113.63 194.715 114.402C195.472 115.174 196.065 116.092 196.458 117.099C197.506 116.898 198.589 117.005 199.578 117.406C200.042 116.417 200.129 115.293 199.825 114.243C199.521 113.194 198.845 112.291 197.925 111.704C197.004 111.116 195.901 110.883 194.821 111.049C193.741 111.214 192.758 111.767 192.056 112.604H192.055ZM197.5 126C198.077 126 198.645 125.857 199.154 125.584C199.662 125.312 200.095 124.918 200.415 124.437C200.734 123.956 200.93 123.404 200.984 122.83C201.038 122.255 200.95 121.676 200.726 121.144C200.503 120.612 200.151 120.144 199.703 119.781C199.254 119.417 198.723 119.171 198.156 119.062C197.59 118.954 197.005 118.987 196.454 119.16C195.903 119.332 195.404 119.638 195 120.05V120C195 118.813 194.648 117.653 193.989 116.667C193.33 115.68 192.392 114.911 191.296 114.457C190.2 114.003 188.993 113.884 187.829 114.115C186.666 114.347 185.596 114.918 184.757 115.757C183.918 116.596 183.347 117.666 183.115 118.829C182.884 119.993 183.003 121.2 183.457 122.296C183.911 123.392 184.68 124.33 185.667 124.989C186.653 125.648 187.813 126 189 126H197.5Z" fill="#03053D"/>
<path d="M552 11H559V13H552V20H550V7C550 5.93913 550.421 4.92172 551.172 4.17157C551.922 3.42143 552.939 3 554 3H561V5H554C553.47 5 552.961 5.21071 552.586 5.58579C552.211 5.96086 552 6.46957 552 7V11ZM544.5 9C544.04 9 543.585 8.90947 543.161 8.73358C542.736 8.55769 542.35 8.29988 542.025 7.97487C541.7 7.64987 541.442 7.26403 541.266 6.83939C541.091 6.41475 541 5.95963 541 5.5C541 5.04037 541.091 4.58525 541.266 4.16061C541.442 3.73597 541.7 3.35013 542.025 3.02513C542.35 2.70012 542.736 2.44231 543.161 2.26642C543.585 2.09053 544.04 2 544.5 2C545.428 2 546.318 2.36875 546.975 3.02513C547.631 3.6815 548 4.57174 548 5.5C548 6.42826 547.631 7.3185 546.975 7.97487C546.318 8.63125 545.428 9 544.5 9V9ZM544.5 7C544.898 7 545.279 6.84196 545.561 6.56066C545.842 6.27936 546 5.89782 546 5.5C546 5.10218 545.842 4.72064 545.561 4.43934C545.279 4.15804 544.898 4 544.5 4C544.102 4 543.721 4.15804 543.439 4.43934C543.158 4.72064 543 5.10218 543 5.5C543 5.89782 543.158 6.27936 543.439 6.56066C543.721 6.84196 544.102 7 544.5 7V7Z" fill="#03053D"/>
<path d="M330 52.418C328.281 51.72 326.858 50.4463 325.974 48.8149C325.09 47.1835 324.801 45.2957 325.155 43.4745C325.51 41.6532 326.486 40.0117 327.917 38.8307C329.348 37.6497 331.145 37.0025 333 37C334.612 36.9999 336.187 37.4866 337.517 38.3965C338.848 39.3063 339.873 40.5968 340.458 42.099C341.853 41.8232 343.301 42.0986 344.498 42.8675C345.694 43.6364 346.547 44.8389 346.875 46.2227C347.204 47.6064 346.984 49.0638 346.262 50.2889C345.539 51.5139 344.37 52.4115 343 52.793V50.663C343.462 50.4437 343.871 50.1257 344.197 49.7315C344.523 49.3373 344.758 48.8764 344.887 48.3813C345.016 47.8861 345.034 47.3688 344.941 46.8657C344.849 46.3627 344.647 45.8861 344.35 45.4695C344.053 45.0529 343.668 44.7065 343.223 44.4546C342.778 44.2027 342.283 44.0515 341.773 44.0116C341.263 43.9717 340.75 44.0441 340.271 44.2237C339.792 44.4032 339.358 44.6857 339 45.051V45C339 43.9468 338.722 42.9122 338.196 42.0002C337.669 41.0882 336.912 40.3309 335.999 39.8044C335.087 39.2779 334.053 39.0008 332.999 39.0008C331.946 39.0009 330.912 39.2783 330 39.8049C329.088 40.3316 328.33 41.089 327.804 42.0011C327.277 42.9132 327 43.9479 327 45.0011C327 46.0542 327.277 47.0889 327.804 48.0009C328.331 48.913 329.088 49.6704 330 50.197V52.418ZM334 52C333.47 52 332.961 51.7893 332.586 51.4142C332.211 51.0391 332 50.5304 332 50C332 49.4696 332.211 48.9609 332.586 48.5858C332.961 48.2107 333.47 48 334 48C334.53 48 335.039 48.2107 335.414 48.5858C335.789 48.9609 336 49.4696 336 50C336 50.5304 335.789 51.0391 335.414 51.4142C335.039 51.7893 334.53 52 334 52ZM339 55C338.47 55 337.961 54.7893 337.586 54.4142C337.211 54.0391 337 53.5304 337 53C337 52.4696 337.211 51.9609 337.586 51.5858C337.961 51.2107 338.47 51 339 51C339.53 51 340.039 51.2107 340.414 51.5858C340.789 51.9609 341 52.4696 341 53C341 53.5304 340.789 54.0391 340.414 54.4142C340.039 54.7893 339.53 55 339 55ZM334 58C333.47 58 332.961 57.7893 332.586 57.4142C332.211 57.0391 332 56.5304 332 56C332 55.4696 332.211 54.9609 332.586 54.5858C332.961 54.2107 333.47 54 334 54C334.53 54 335.039 54.2107 335.414 54.5858C335.789 54.9609 336 55.4696 336 56C336 56.5304 335.789 57.0391 335.414 57.4142C335.039 57.7893 334.53 58 334 58Z" fill="#03053D"/>
<path d="M299.38 73.019C298.643 73.7056 298.052 74.5336 297.642 75.4536C297.232 76.3736 297.012 77.3667 296.994 78.3738C296.976 79.3808 297.162 80.3811 297.539 81.315C297.916 82.2489 298.477 83.0972 299.19 83.8094C299.902 84.5216 300.75 85.083 301.684 85.4602C302.618 85.8374 303.618 86.0227 304.625 86.0049C305.632 85.9871 306.625 85.7667 307.545 85.3568C308.465 84.9469 309.293 84.3559 309.98 83.619C309.662 88.854 305.316 93 300.001 93C294.477 93 290 88.523 290 83C290 77.685 294.146 73.339 299.38 73.019Z" fill="#03053D"/>
<path d="M196 52.472C197.099 53.4578 198.524 54.002 200 54H202V56H200C198.596 56.0023 197.216 55.6331 196 54.93C194.784 55.6333 193.404 56.0024 192 56C190.596 56.0023 189.216 55.6331 188 54.93C186.784 55.6333 185.404 56.0024 184 56H182V54H184C185.537 54 186.94 53.422 188 52.472C189.099 53.4578 190.524 54.002 192 54C193.537 54 194.94 53.422 196 52.472ZM192.573 36.532L192.673 36.612L203 46H200V52C199.319 52.0009 198.642 51.8856 198 51.659V44.157L192 38.702L186 44.156L186.001 51.658C185.453 51.8518 184.88 51.9647 184.299 51.993L184 52V46H181L191.327 36.612C191.495 36.4593 191.71 36.3682 191.936 36.3536C192.162 36.3391 192.387 36.402 192.573 36.532V36.532Z" fill="#03053D"/>
<path d="M404 112C404 110.939 404.421 109.922 405.172 109.172C405.922 108.421 406.939 108 408 108C409.061 108 410.078 108.421 410.828 109.172C411.579 109.922 412 110.939 412 112V117.255C413.223 118.107 414.142 119.326 414.624 120.736C415.106 122.147 415.125 123.674 414.679 125.096C414.233 126.518 413.344 127.76 412.143 128.642C410.942 129.524 409.49 130 408 130C406.51 130 405.058 129.524 403.857 128.642C402.656 127.76 401.767 126.518 401.321 125.096C400.875 123.674 400.894 122.147 401.376 120.736C401.858 119.326 402.777 118.107 404 117.255V112ZM405.144 118.895C404.27 119.503 403.613 120.374 403.269 121.382C402.924 122.389 402.911 123.48 403.229 124.496C403.548 125.511 404.182 126.399 405.041 127.029C405.899 127.659 406.935 127.999 408 127.999C409.065 127.999 410.101 127.659 410.959 127.029C411.818 126.399 412.452 125.511 412.771 124.496C413.089 123.48 413.076 122.389 412.731 121.382C412.387 120.374 411.73 119.503 410.856 118.895L410 118.298V112C410 111.47 409.789 110.961 409.414 110.586C409.039 110.211 408.53 110 408 110C407.47 110 406.961 110.211 406.586 110.586C406.211 110.961 406 111.47 406 112V118.298L405.144 118.895ZM404 123H412C412 124.061 411.579 125.078 410.828 125.828C410.078 126.579 409.061 127 408 127C406.939 127 405.922 126.579 405.172 125.828C404.421 125.078 404 124.061 404 123V123Z" fill="#03053D"/>
<path d="M545 51.9302C543.893 51.2904 542.956 50.3948 542.267 49.3183C541.578 48.2418 541.156 47.0158 541.038 45.743C540.92 44.4702 541.109 43.1877 541.589 42.0028C542.068 40.818 542.825 39.7653 543.795 38.9329C544.765 38.1006 545.92 37.5128 547.164 37.2188C548.408 36.9249 549.705 36.9333 550.945 37.2433C552.185 37.5534 553.333 38.1561 554.292 39.0009C555.251 39.8458 555.994 40.9082 556.458 42.0992C557.853 41.8234 559.301 42.0988 560.498 42.8677C561.694 43.6366 562.547 44.8391 562.875 46.2229C563.204 47.6066 562.984 49.064 562.262 50.2891C561.539 51.5141 560.37 52.4117 559 52.7932V50.6632C559.462 50.4439 559.871 50.1259 560.197 49.7317C560.523 49.3375 560.758 48.8766 560.887 48.3815C561.016 47.8863 561.034 47.369 560.941 46.8659C560.849 46.3629 560.647 45.8863 560.35 45.4697C560.053 45.0531 559.668 44.7067 559.223 44.4548C558.778 44.2029 558.283 44.0517 557.773 44.0118C557.263 43.9719 556.75 44.0443 556.271 44.2239C555.792 44.4034 555.358 44.6859 555 45.0512V45.0002C555 43.9994 554.75 43.0144 554.272 42.135C553.794 41.2557 553.104 40.5098 552.264 39.9654C551.424 39.421 550.461 39.0953 549.463 39.018C548.466 38.9407 547.464 39.1142 546.551 39.5228C545.637 39.9314 544.84 40.562 544.232 41.3573C543.625 42.1526 543.226 43.0872 543.072 44.0761C542.917 45.065 543.013 46.0768 543.35 47.0193C543.687 47.9617 544.254 48.805 545 49.4722V51.9302ZM547 49.0002H549V55.0002H547V49.0002ZM555 49.0002H557V55.0002H555V49.0002ZM551 52.0002H553V58.0002H551V52.0002Z" fill="#03053D"/>
<path d="M57 72V84C56.9998 85.5736 56.587 87.1197 55.8027 88.484C55.0185 89.8483 53.8902 90.9831 52.5305 91.7752C51.1708 92.5674 49.6272 92.9892 48.0536 92.9986C46.48 93.0079 44.9314 92.6045 43.5624 91.8286C42.1933 91.0527 41.0517 89.9314 40.2512 88.5766C39.4508 87.2217 39.0196 85.6807 39.0007 84.1072C38.9817 82.5336 39.3756 80.9827 40.1432 79.6089C40.9107 78.2352 42.0251 77.0867 43.375 76.278L50 72.453V75.223L57 72ZM55 75.122L48 78.346V75.916L44.597 77.881C43.5468 78.4648 42.6646 79.3093 42.0355 80.3331C41.4063 81.3568 41.0515 82.5253 41.005 83.726L41 84C40.9991 85.8363 41.7198 87.5995 43.0068 88.9093C44.2938 90.2192 46.0439 90.9709 47.88 91.0024C49.716 91.0339 51.4909 90.3426 52.8221 89.0776C54.1532 87.8127 54.9339 86.0753 54.996 84.24L55 84V75.122ZM48 79C49.3261 79 50.5979 79.5268 51.5355 80.4645C52.4732 81.4021 53 82.6739 53 84C53 85.3261 52.4732 86.5979 51.5355 87.5355C50.5979 88.4732 49.3261 89 48 89C46.6739 89 45.4021 88.4732 44.4645 87.5355C43.5268 86.5979 43 85.3261 43 84C43 82.6739 43.5268 81.4021 44.4645 80.4645C45.4021 79.5268 46.6739 79 48 79ZM48 81C47.2044 81 46.4413 81.3161 45.8787 81.8787C45.3161 82.4413 45 83.2044 45 84C45 84.7956 45.3161 85.5587 45.8787 86.1213C46.4413 86.6839 47.2044 87 48 87C48.7956 87 49.5587 86.6839 50.1213 86.1213C50.6839 85.5587 51 84.7956 51 84C51 83.2044 50.6839 82.4413 50.1213 81.8787C49.5587 81.3161 48.7956 81 48 81Z" fill="#03053D"/>
<path d="M340 91.334V89H338V85H327.332C327.111 84.1851 326.999 83.3444 327 82.5C327 77.94 330.213 74.13 334.5 73.211C333.926 74.7536 333.841 76.4359 334.258 78.0284C334.675 79.6208 335.573 81.046 336.829 82.1094C338.086 83.1728 339.64 83.8227 341.279 83.9704C342.918 84.1182 344.564 83.7566 345.99 82.935C345.906 84.7632 345.296 86.5283 344.234 88.0184C343.171 89.5085 341.701 90.6601 340 91.335V91.334ZM331 91H338V93H331V91ZM326 87H336V89H326V87Z" fill="#03053D"/>
<path d="M194 17.0002V15.0002H197.5C198.077 15.0001 198.645 14.8573 199.154 14.5846C199.662 14.3119 200.095 13.9177 200.415 13.4371C200.734 12.9564 200.93 12.4043 200.984 11.8298C201.038 11.2554 200.95 10.6764 200.726 10.1444C200.503 9.61239 200.151 9.14393 199.703 8.78068C199.254 8.41743 198.723 8.17067 198.156 8.06236C197.59 7.95405 197.005 7.98756 196.454 8.1599C195.903 8.33224 195.404 8.63807 195 9.05016V9.00016C195 7.40886 194.368 5.88273 193.243 4.75751C192.117 3.6323 190.591 3.00016 189 3.00016C187.409 3.00016 185.883 3.6323 184.757 4.75751C183.632 5.88273 183 7.40886 183 9.00016V9.00716H181V9.00016C180.998 7.13331 181.65 5.32472 182.841 3.88758C184.033 2.45045 185.69 1.47527 187.524 1.13093C189.359 0.786592 191.257 1.09477 192.888 2.00211C194.52 2.90944 195.783 4.35879 196.458 6.09916C197.21 5.95445 197.985 5.96852 198.731 6.14046C199.478 6.3124 200.18 6.63843 200.793 7.09764C201.407 7.55685 201.917 8.13912 202.292 8.80713C202.668 9.47514 202.899 10.2142 202.972 10.9768C203.045 11.7395 202.958 12.5089 202.716 13.2359C202.474 13.9629 202.083 14.6313 201.568 15.1984C201.053 15.7655 200.425 16.2187 199.724 16.529C199.024 16.8392 198.266 16.9997 197.5 17.0002H194ZM186 19.0002H196V21.0002H186V19.0002ZM186 11.0002H194V13.0002H186V11.0002ZM182 15.0002H192V17.0002H182V15.0002Z" fill="#03053D"/>
<path d="M55 8C55.667 9.06 56 10.394 56 12C56 15 52.5 16 51 21C50.333 20.425 50 19.592 50 18.5C50 15.018 55 13.21 55 8ZM50.5 4C51.1641 5.22816 51.508 6.60383 51.5 8C51.5 13 45.5 14 47.5 21C45.833 19.84 45 18.173 45 16C45 12.675 50.5 10 50.5 4ZM46 0C46.667 1.333 47 2.833 47 4.5C47 10.5 38 12 44 21C41.5 20.5 39.5 18 39.5 15C39.5 8.5 46 7.5 46 0Z" fill="#03053D"/>
<path d="M473 20C472.755 19.9999 472.519 19.91 472.336 19.7473C472.153 19.5845 472.036 19.3602 472.007 19.117L472 19V9.99997H469L479.327 0.61197C479.495 0.459261 479.71 0.368156 479.936 0.353618C480.162 0.339081 480.387 0.401974 480.573 0.53197L480.673 0.61197L491 9.99997H488V19C488 19.2449 487.91 19.4813 487.747 19.6643C487.585 19.8474 487.36 19.9643 487.117 19.993L487 20H473ZM480 2.70197L474 8.15597V18H478.357L479.75 16.5L476 13L481 9.99997L478.5 7.99997L481.5 4.99997L481 7.99997L483.5 9.99997L479.5 13L483 16L481.75 18H486V8.15697L480 2.70197V2.70197Z" fill="#03053D"/>
<path d="M121 123.268L122.964 122.134L123.964 123.866L122 125L123.964 126.134L122.964 127.866L121 126.732V129H119V126.732L117.036 127.866L116.036 126.134L118 125L116.036 123.866L117.036 122.134L119 123.268V121H121V123.268ZM125 125V123H125.5C126.077 123 126.645 122.857 127.154 122.584C127.662 122.312 128.095 121.918 128.415 121.437C128.734 120.956 128.93 120.404 128.984 119.83C129.038 119.255 128.95 118.676 128.726 118.144C128.503 117.612 128.151 117.144 127.703 116.781C127.254 116.417 126.723 116.171 126.156 116.062C125.59 115.954 125.005 115.987 124.454 116.16C123.903 116.332 123.404 116.638 123 117.05V117C123 115.9 122.697 114.821 122.125 113.882C121.553 112.943 120.734 112.178 119.757 111.673C118.78 111.168 117.683 110.941 116.586 111.016C115.488 111.092 114.433 111.469 113.535 112.104C112.637 112.739 111.931 113.609 111.494 114.618C111.057 115.627 110.906 116.738 111.057 117.827C111.208 118.916 111.656 119.943 112.351 120.796C113.047 121.648 113.963 122.292 115 122.659V124.748C113.674 124.405 112.458 123.727 111.469 122.779C110.48 121.831 109.751 120.645 109.351 119.334C108.952 118.024 108.896 116.633 109.189 115.294C109.481 113.956 110.113 112.715 111.022 111.691C111.932 110.667 113.09 109.893 114.384 109.444C115.678 108.996 117.066 108.887 118.415 109.128C119.763 109.37 121.027 109.954 122.085 110.824C123.144 111.694 123.961 112.822 124.458 114.098C125.21 113.954 125.984 113.969 126.73 114.141C127.476 114.314 128.178 114.64 128.79 115.099C129.403 115.558 129.913 116.14 130.288 116.808C130.663 117.476 130.894 118.214 130.967 118.977C131.039 119.739 130.952 120.508 130.711 121.235C130.469 121.961 130.079 122.629 129.564 123.196C129.05 123.763 128.422 124.217 127.723 124.527C127.023 124.838 126.266 124.999 125.5 125L125 125.001V125Z" fill="#03053D"/>
<path d="M413 16.9998V14.9998H413.5C414.077 14.9998 414.645 14.857 415.154 14.5843C415.662 14.3116 416.095 13.9174 416.415 13.4367C416.734 12.9561 416.93 12.404 416.984 11.8295C417.038 11.255 416.95 10.676 416.726 10.1441C416.503 9.61207 416.151 9.1436 415.703 8.78035C415.254 8.4171 414.723 8.17034 414.156 8.06204C413.59 7.95373 413.005 7.98724 412.454 8.15958C411.903 8.33192 411.404 8.63775 411 9.04983V8.99983C411 7.89993 410.697 6.8213 410.125 5.88182C409.553 4.94234 408.734 4.17816 407.757 3.6728C406.78 3.16743 405.683 2.94033 404.586 3.01631C403.488 3.09229 402.433 3.46843 401.535 4.10362C400.637 4.73881 399.931 5.60861 399.494 6.61796C399.057 7.62731 398.906 8.73737 399.057 9.82682C399.208 10.9163 399.656 11.9432 400.351 12.7954C401.047 13.6476 401.963 14.2922 403 14.6588V16.7478C401.674 16.4046 400.458 15.7266 399.469 14.7787C398.48 13.8307 397.751 12.6447 397.351 11.3342C396.952 10.0237 396.896 8.6326 397.189 7.29424C397.481 5.95588 398.113 4.71509 399.022 3.69074C399.932 2.6664 401.09 1.89282 402.384 1.44415C403.678 0.995467 405.066 0.886716 406.415 1.12831C407.763 1.36991 409.027 1.95375 410.085 2.82391C411.144 3.69407 411.961 4.82138 412.458 6.09783C413.21 5.95394 413.984 5.96866 414.73 6.14105C415.476 6.31343 416.178 6.63969 416.79 7.09894C417.403 7.55818 417.913 8.14029 418.288 8.80801C418.663 9.47572 418.894 10.2143 418.967 10.9765C419.04 11.7388 418.952 12.5078 418.711 13.2344C418.469 13.961 418.079 14.6292 417.564 15.1962C417.05 15.7632 416.422 16.2165 415.723 16.527C415.023 16.8376 414.266 16.9987 413.5 16.9998L413 17.0008V16.9998ZM405 14.9998H407V18.9998H405V14.9998ZM409 17.9998H411V21.9998H409V17.9998Z" fill="#03053D"/>
<path d="M253.584 48.007C252.801 46.0347 252.833 43.832 253.673 41.8834C254.514 39.9348 256.094 38.4 258.066 37.6165C260.039 36.8331 262.242 36.8652 264.19 37.7058C266.139 38.5464 267.674 40.1267 268.457 42.099C269.295 41.937 270.159 41.9724 270.982 42.2023C271.804 42.4322 272.561 42.8502 273.194 43.4234C273.826 43.9966 274.317 44.7092 274.626 45.5048C274.936 46.3003 275.056 47.157 274.977 48.007H272.964C273.071 47.2759 272.945 46.5295 272.602 45.8749C272.259 45.2202 271.718 44.6908 271.056 44.3626C270.394 44.0343 269.645 43.924 268.916 44.0475C268.188 44.171 267.517 44.5219 267 45.05V45C267 44.0795 266.788 43.1713 266.38 42.3459C265.973 41.5204 265.381 40.7998 264.65 40.2398C263.92 39.6797 263.07 39.2953 262.167 39.1162C261.264 38.9371 260.332 38.9682 259.443 39.207C258.554 39.4458 257.732 39.886 257.041 40.4935C256.349 41.101 255.806 41.8594 255.455 42.7102C255.103 43.5609 254.952 44.4812 255.013 45.3997C255.074 46.3182 255.346 47.2103 255.807 48.007H253.584ZM256 54H273V56H256V54ZM254 50H275V52H254V50Z" fill="#03053D"/>
<path d="M306.995 52.794C306.964 52.1937 306.799 51.608 306.51 51.0806C306.222 50.5531 305.819 50.0973 305.33 49.7472C304.842 49.3971 304.28 49.1616 303.688 49.0582C303.096 48.9548 302.488 48.9862 301.91 49.15C301.7 48.1861 301.141 47.3339 300.34 46.7571C299.54 46.1803 298.554 45.9196 297.574 46.025C296.593 46.1304 295.685 46.5945 295.026 47.3282C294.366 48.0619 294.001 49.0134 294 50C294 51.08 294.428 52.059 295.122 52.778C293.785 52.4546 292.554 51.7921 291.548 50.8543C290.542 49.9165 289.795 48.7352 289.378 47.4243C288.962 46.1135 288.89 44.7174 289.171 43.3709C289.451 42.0244 290.074 40.773 290.979 39.7374C291.885 38.7018 293.041 37.9171 294.338 37.459C295.635 37.0009 297.028 36.8849 298.383 37.1222C299.738 37.3595 301.008 37.942 302.072 38.8136C303.136 39.6852 303.958 40.8164 304.457 42.098C305.854 41.8198 307.304 42.0942 308.502 42.8635C309.701 43.6328 310.554 44.837 310.883 46.2227C311.212 47.6084 310.99 49.0676 310.265 50.2932C309.539 51.5188 308.367 52.4153 306.994 52.794H306.995ZM298 52C297.47 52 296.961 51.7893 296.586 51.4142C296.211 51.0391 296 50.5304 296 50C296 49.4696 296.211 48.9609 296.586 48.5858C296.961 48.2107 297.47 48 298 48C298.53 48 299.039 48.2107 299.414 48.5858C299.789 48.9609 300 49.4696 300 50C300 50.5304 299.789 51.0391 299.414 51.4142C299.039 51.7893 298.53 52 298 52ZM303 55C302.47 55 301.961 54.7893 301.586 54.4142C301.211 54.0391 301 53.5304 301 53C301 52.4696 301.211 51.9609 301.586 51.5858C301.961 51.2107 302.47 51 303 51C303.53 51 304.039 51.2107 304.414 51.5858C304.789 51.9609 305 52.4696 305 53C305 53.5304 304.789 54.0391 304.414 54.4142C304.039 54.7893 303.53 55 303 55ZM298 58C297.47 58 296.961 57.7893 296.586 57.4142C296.211 57.0391 296 56.5304 296 56C296 55.4696 296.211 54.9609 296.586 54.5858C296.961 54.2107 297.47 54 298 54C298.53 54 299.039 54.2107 299.414 54.5858C299.789 54.9609 300 55.4696 300 56C300 56.5304 299.789 57.0391 299.414 57.4142C299.039 57.7893 298.53 58 298 58Z" fill="#03053D"/>
<path d="M160 52.472C161.099 53.4578 162.524 54.002 164 54H166V56H164C162.596 56.0023 161.216 55.6331 160 54.93C158.784 55.6333 157.404 56.0024 156 56C154.596 56.0023 153.216 55.6331 152 54.93C150.784 55.6333 149.404 56.0024 148 56H146V54H148C149.537 54 150.94 53.422 152 52.472C153.099 53.4578 154.524 54.002 156 54C157.537 54 158.94 53.422 160 52.472ZM156.573 36.532L156.673 36.612L167 46H164V52C163.224 52.0006 162.458 51.8202 161.764 51.473C161.069 51.1258 160.465 50.6214 160 50C159.535 50.6216 158.931 51.126 158.237 51.4732C157.542 51.8204 156.776 52.0008 156 52C155.224 52.0006 154.458 51.8202 153.764 51.473C153.069 51.1258 152.465 50.6214 152 50C151.535 50.6216 150.931 51.126 150.237 51.4732C149.542 51.8204 148.776 52.0008 148 52L147.999 46H145L155.327 36.612C155.479 36.4735 155.67 36.3853 155.874 36.3594C156.078 36.3334 156.285 36.371 156.467 36.467L156.573 36.532V36.532Z" fill="#03053D"/>
<path d="M406 78C406 79.3906 406.414 80.7498 407.189 81.9042C407.965 83.0586 409.066 83.9559 410.354 84.4816C411.641 85.0073 413.056 85.1376 414.418 84.8559C415.78 84.5742 417.027 83.8933 418 82.9V83C418 88.523 413.523 93 408 93C402.477 93 398 88.523 398 83C398 77.477 402.477 73 408 73H408.1C407.434 73.6511 406.905 74.429 406.544 75.2877C406.184 76.1464 405.999 77.0686 406 78V78ZM400 83C399.999 84.785 400.596 86.5189 401.694 87.926C402.792 89.333 404.33 90.3323 406.061 90.7648C407.793 91.1974 409.62 91.0383 411.251 90.313C412.882 89.5876 414.223 88.3377 415.062 86.762C413.569 87.1136 412.012 87.0781 410.537 86.6587C409.062 86.2394 407.719 85.4501 406.634 84.3658C405.55 83.2815 404.761 81.9381 404.341 80.4632C403.922 78.9882 403.886 77.4306 404.238 75.938C402.958 76.6201 401.887 77.6377 401.14 78.8816C400.394 80.1256 400 81.5492 400 83V83Z" fill="#03053D"/>
<path d="M368 117.255V112C368 110.939 368.421 109.922 369.172 109.172C369.922 108.421 370.939 108 372 108C373.061 108 374.078 108.421 374.828 109.172C375.579 109.922 376 110.939 376 112V117.255C377.223 118.107 378.142 119.326 378.624 120.736C379.106 122.147 379.125 123.674 378.679 125.096C378.233 126.518 377.344 127.76 376.143 128.642C374.942 129.524 373.49 130 372 130C370.51 130 369.058 129.524 367.857 128.642C366.656 127.76 365.767 126.518 365.321 125.096C364.875 123.674 364.894 122.147 365.376 120.736C365.858 119.326 366.777 118.107 368 117.255V117.255ZM368 123C368 124.061 368.421 125.078 369.172 125.828C369.922 126.579 370.939 127 372 127C373.061 127 374.078 126.579 374.828 125.828C375.579 125.078 376 124.061 376 123H368Z" fill="#03053D"/>
<path d="M517 53V58H515V53H513V56H511V52.748C509.674 52.4048 508.458 51.7268 507.469 50.7788C506.48 49.8309 505.751 48.6449 505.351 47.3344C504.952 46.0238 504.896 44.6328 505.189 43.2944C505.481 41.956 506.113 40.7152 507.022 39.6909C507.932 38.6666 509.09 37.893 510.384 37.4443C511.678 36.9956 513.066 36.8869 514.415 37.1285C515.763 37.3701 517.027 37.9539 518.085 38.8241C519.144 39.6942 519.961 40.8215 520.458 42.098C521.21 41.9541 521.984 41.9688 522.73 42.1412C523.476 42.3136 524.178 42.6399 524.79 43.0991C525.403 43.5583 525.913 44.1405 526.288 44.8082C526.663 45.4759 526.894 46.2145 526.967 46.9767C527.04 47.7389 526.952 48.5079 526.711 49.2346C526.469 49.9612 526.079 50.6294 525.564 51.1963C525.05 51.7633 524.422 52.2166 523.723 52.5272C523.023 52.8378 522.266 52.9988 521.5 53L521 53.001V56.001H519V53.001H517V53Z" fill="#03053D"/>
<path d="M21 72V84C20.9998 85.5736 20.587 87.1197 19.8027 88.484C19.0185 89.8483 17.8902 90.9831 16.5305 91.7752C15.1708 92.5674 13.6272 92.9892 12.0536 92.9986C10.48 93.0079 8.93142 92.6045 7.56238 91.8286C6.19334 91.0527 5.05166 89.9314 4.25124 88.5766C3.45081 87.2217 3.01961 85.6807 3.00065 84.1072C2.98169 82.5336 3.37563 80.9827 4.14318 79.6089C4.91073 78.2352 6.02505 77.0867 7.375 76.278L14 72.453V75.223L21 72ZM12 79C10.6739 79 9.40215 79.5268 8.46447 80.4645C7.52678 81.4021 7 82.6739 7 84C7 85.3261 7.52678 86.5979 8.46447 87.5355C9.40215 88.4732 10.6739 89 12 89C13.3261 89 14.5979 88.4732 15.5355 87.5355C16.4732 86.5979 17 85.3261 17 84C17 82.6739 16.4732 81.4021 15.5355 80.4645C14.5979 79.5268 13.3261 79 12 79V79Z" fill="#03053D"/>
<path d="M153.984 112.06C154.39 111.287 154.947 110.604 155.622 110.052C156.297 109.499 157.077 109.088 157.914 108.843C158.752 108.598 159.63 108.524 160.497 108.626C161.364 108.728 162.201 109.003 162.959 109.435C163.717 109.868 164.38 110.448 164.909 111.142C165.438 111.836 165.822 112.63 166.037 113.475C166.253 114.321 166.296 115.201 166.164 116.064C166.032 116.926 165.728 117.753 165.27 118.496C166.072 119.251 166.629 120.23 166.868 121.306C167.107 122.381 167.018 123.504 166.612 124.528C166.206 125.552 165.501 126.431 164.59 127.05C163.678 127.669 162.602 128 161.5 128L153 127.999C151.908 127.998 150.829 127.774 149.827 127.34C148.825 126.906 147.923 126.272 147.175 125.477C146.428 124.681 145.851 123.741 145.481 122.714C145.11 121.687 144.954 120.596 145.021 119.506C145.089 118.417 145.378 117.352 145.872 116.379C146.366 115.406 147.054 114.543 147.893 113.846C148.733 113.148 149.706 112.63 150.754 112.323C151.801 112.015 152.901 111.926 153.984 112.059V112.06ZM156.055 112.604C157.054 113.018 157.959 113.63 158.715 114.402C159.472 115.174 160.065 116.092 160.458 117.099C161.506 116.898 162.589 117.005 163.578 117.406C164.042 116.417 164.129 115.293 163.825 114.243C163.521 113.194 162.845 112.291 161.925 111.704C161.004 111.116 159.901 110.883 158.821 111.049C157.741 111.214 156.758 111.767 156.056 112.604H156.055Z" fill="#03053D"/>
<path d="M516 11H523V13H516V20H514V7C514 5.93913 514.421 4.92172 515.172 4.17157C515.922 3.42143 516.939 3 518 3H525V5H518C517.47 5 516.961 5.21071 516.586 5.58579C516.211 5.96086 516 6.46957 516 7V11ZM508.5 9C508.04 9 507.585 8.90947 507.161 8.73358C506.736 8.55769 506.35 8.29988 506.025 7.97487C505.7 7.64987 505.442 7.26403 505.266 6.83939C505.091 6.41475 505 5.95963 505 5.5C505 5.04037 505.091 4.58525 505.266 4.16061C505.442 3.73597 505.7 3.35013 506.025 3.02513C506.35 2.70012 506.736 2.44231 507.161 2.26642C507.585 2.09053 508.04 2 508.5 2C509.428 2 510.318 2.36875 510.975 3.02513C511.631 3.6815 512 4.57174 512 5.5C512 6.42826 511.631 7.3185 510.975 7.97487C510.318 8.63125 509.428 9 508.5 9V9ZM508.5 7C508.898 7 509.279 6.84196 509.561 6.56066C509.842 6.27936 510 5.89782 510 5.5C510 5.10218 509.842 4.72064 509.561 4.43934C509.279 4.15804 508.898 4 508.5 4C508.102 4 507.721 4.15804 507.439 4.43934C507.158 4.72064 507 5.10218 507 5.5C507 5.89782 507.158 6.27936 507.439 6.56066C507.721 6.84196 508.102 7 508.5 7V7Z" fill="#03053D"/>
<path d="M371 17V20H369V17C367.544 16.9995 366.116 16.6018 364.869 15.8496C363.623 15.0973 362.605 14.0192 361.926 12.7313C361.247 11.4435 360.932 9.99468 361.016 8.54113C361.099 7.08759 361.578 5.6844 362.4 4.48277C363.222 3.28114 364.356 2.32665 365.681 1.72215C367.005 1.11765 368.47 0.886065 369.916 1.05236C371.363 1.21865 372.736 1.77651 373.889 2.66582C375.042 3.55513 375.93 4.74216 376.458 6.099C377.21 5.9543 377.985 5.96837 378.731 6.14031C379.478 6.31225 380.18 6.63828 380.793 7.09749C381.407 7.5567 381.917 8.13897 382.292 8.80698C382.668 9.47499 382.899 10.214 382.972 10.9767C383.045 11.7393 382.958 12.5088 382.716 13.2358C382.474 13.9627 382.083 14.6312 381.568 15.1983C381.053 15.7653 380.425 16.2185 379.724 16.5288C379.024 16.8391 378.266 16.9996 377.5 17H371ZM373 19H375V22H373V19Z" fill="#03053D"/>
<path d="M217.584 48.007C216.801 46.0347 216.833 43.832 217.673 41.8834C218.514 39.9348 220.094 38.4 222.066 37.6165C224.039 36.8331 226.242 36.8652 228.19 37.7058C230.139 38.5464 231.674 40.1267 232.457 42.099C233.295 41.937 234.159 41.9724 234.982 42.2023C235.804 42.4322 236.561 42.8502 237.194 43.4234C237.826 43.9966 238.317 44.7092 238.626 45.5048C238.936 46.3003 239.056 47.157 238.977 48.007H217.584ZM220 54H237V56H220V54ZM218 50H239V52H218V50Z" fill="#03053D"/>
<path d="M158 16.9999V13.0069H146.074C145.337 11.1271 145.339 9.0383 146.078 7.15943C146.817 5.28057 148.239 3.75064 150.059 2.87653C151.879 2.00242 153.962 1.84878 155.891 2.44643C157.819 3.04408 159.45 4.34882 160.457 6.09893C161.209 5.95423 161.984 5.96829 162.73 6.1402C163.477 6.31212 164.179 6.6381 164.792 7.09726C165.406 7.55642 165.916 8.13863 166.291 8.80658C166.666 9.47452 166.898 10.2135 166.971 10.9761C167.044 11.7387 166.957 12.5081 166.715 13.2351C166.473 13.9621 166.082 14.6305 165.567 15.1976C165.052 15.7647 164.424 16.218 163.724 16.5284C163.024 16.8387 162.266 16.9993 161.5 16.9999H158.001H158ZM150 18.9999H160V20.9999H150V18.9999ZM146 14.9999H156V16.9999H146V14.9999Z" fill="#03053D"/>
<path d="M376 91.334V89.135C377.714 88.2284 379.012 86.6947 379.623 84.854C378.314 85.094 376.968 85.0407 375.682 84.6979C374.396 84.355 373.202 83.7312 372.186 82.8714C371.17 82.0115 370.357 80.937 369.806 79.7253C369.256 78.5136 368.981 77.1948 369.001 75.864C368.02 76.3829 367.166 77.1125 366.5 78.0005C365.835 78.8885 365.374 79.9128 365.151 81H363.117C363.452 78.9121 364.473 76.9954 366.019 75.5531C367.566 74.1109 369.549 73.2255 371.655 73.037C371.003 74.4297 370.828 75.9982 371.157 77.5003C371.486 79.0024 372.3 80.3544 373.474 81.3475C374.648 82.3407 376.116 82.9197 377.652 82.9952C379.188 83.0706 380.705 82.6383 381.971 81.765C382.128 83.7887 381.633 85.8096 380.559 87.5317C379.485 89.2539 377.887 90.5867 376 91.335V91.334ZM367 91H374V93H367V91ZM364 83H370V85H364V83ZM362 87H372V89H362V87Z" fill="#03053D"/>
<path d="M443.327 0.61197C443.495 0.459261 443.71 0.368156 443.936 0.353618C444.162 0.339081 444.387 0.401974 444.573 0.53197L444.673 0.61197L455 9.99997H452V19C452 19.2449 451.91 19.4813 451.747 19.6643C451.585 19.8474 451.36 19.9643 451.117 19.993L451 20H444.5L447 16L443.5 13L447.5 9.99997L445 7.99997L445.5 4.99997L442.5 7.99997L445 9.99997L440 13L443.75 16.5L440.5 20H437C436.755 19.9999 436.519 19.91 436.336 19.7473C436.153 19.5845 436.036 19.3602 436.007 19.117L436 19V9.99997H433L443.327 0.61197Z" fill="#03053D"/>
<path d="M18.5 8C19.5 9.06 20 10.394 20 12C20 15.466 16.3 16.276 14.5 21C13.833 20.425 13.5 19.592 13.5 18.5C13.5 15.018 18.5 13.21 18.5 8ZM14.5 4C15.7 5.238 16.3 6.572 16.3 8C16.3 12.951 10.255 13.692 11.5 21C9.833 19.84 9 18.173 9 16C9 12.675 14.5 10 14.5 4ZM10 0C11.333 1.667 12 3.167 12 4.5C12 10.75 3.5 12.722 8 21C5.384 20.42 3.5 18 3.5 15C3.5 8.5 10 7.5 10 0Z" fill="#03053D"/>
<path d="M78.027 124.43C76.3024 123.738 74.8724 122.467 73.9825 120.835C73.0926 119.204 72.7982 117.314 73.1498 115.489C73.5014 113.664 74.4771 112.018 75.9094 110.834C77.3418 109.65 79.1416 109.002 81 109C82.6121 109 84.1866 109.487 85.5173 110.396C86.8481 111.306 87.873 112.597 88.458 114.099C89.8656 113.967 91.2699 114.382 92.3796 115.258C93.4893 116.134 94.2191 117.403 94.4175 118.803C94.6159 120.203 94.2677 121.625 93.4451 122.775C92.6226 123.925 91.3888 124.714 90 124.978C89.9951 123.438 89.3979 121.958 88.3321 120.846C87.2663 119.734 85.8136 119.074 84.2749 119.004C82.7361 118.933 81.2291 119.457 80.066 120.467C78.903 121.477 78.1729 122.896 78.027 124.429V124.43ZM85 123.267L86.964 122.133L87.964 123.865L86 125L87.964 126.134L86.964 127.866L85 126.732V129H83V126.732L81.036 127.866L80.036 126.134L82 125L80.036 123.866L81.036 122.134L83 123.268V121H85V123.268V123.267Z" fill="#03053D"/>
</svg>
