<svg width="30" height="30" viewBox="0 0 30 30" fill="none" xmlns="http://www.w3.org/2000/svg">
<path d="M25.714 7.5C23.3503 7.5 21.4283 9.42261 21.4283 11.7857C21.4283 12.3774 21.9075 12.8571 22.4997 12.8571C23.0919 12.8571 23.5711 12.3774 23.5711 11.7857C23.5711 10.6039 24.5327 9.64286 25.714 9.64286C26.8953 9.64286 27.8568 10.6039 27.8568 11.7857C27.8568 12.9676 26.8953 13.9286 25.714 13.9286H1.1559C0.563669 13.9286 0.0844727 14.4083 0.0844727 15C0.0844727 15.5917 0.563669 16.0714 1.1559 16.0714H25.714C28.0776 16.0714 29.9997 14.1488 29.9997 11.7857C29.9997 9.42261 28.0776 7.5 25.714 7.5Z" fill="white"/>
<path d="M15 3.21428C12.6364 3.21428 10.7143 5.13689 10.7143 7.49999C10.7143 8.09169 11.1935 8.57142 11.7857 8.57142C12.3779 8.57142 12.8571 8.09169 12.8571 7.49999C12.8571 6.31814 13.8187 5.35714 15 5.35714C16.1813 5.35714 17.1429 6.31814 17.1429 7.49999C17.1429 8.68185 16.1813 9.64285 15 9.64285H1.07143C0.479196 9.64285 0 10.1226 0 10.7143C0 11.306 0.479196 11.7857 1.07143 11.7857H15C17.3636 11.7857 19.2857 9.8631 19.2857 7.49999C19.2857 5.13689 17.3636 3.21428 15 3.21428Z" fill="white"/>
<path d="M15 18.2143H1.07143C0.479196 18.2143 0 18.694 0 19.2857C0 19.8774 0.479196 20.3571 1.07143 20.3571H15C16.1813 20.3571 17.1429 21.3181 17.1429 22.5C17.1429 23.6819 16.1813 24.6429 15 24.6429C13.8187 24.6429 12.8571 23.6819 12.8571 22.5C12.8571 21.9083 12.3779 21.4286 11.7857 21.4286C11.1935 21.4286 10.7143 21.9083 10.7143 22.5C10.7143 24.8631 12.6364 26.7857 15 26.7857C17.3636 26.7857 19.2857 24.8631 19.2857 22.5C19.2857 20.1369 17.3636 18.2143 15 18.2143Z" fill="white"/>
</svg>
