<svg width="30" height="30" viewBox="0 0 30 30" fill="none" xmlns="http://www.w3.org/2000/svg">
<g clip-path="url(#clip0)">
<path d="M19.4392 25.1369C19.8919 25.5991 19.8846 26.3411 19.4222 26.7941C17.3124 28.8613 14.4727 30 11.4258 30C8.37204 30 5.50392 28.8231 3.34991 26.686C1.18973 24.5428 0 21.6829 0 18.6328V18.3188C0 14.3598 3.30826 10.5634 6.22696 7.2139C8.20679 4.94202 10.2539 2.59254 10.2539 1.17188C10.2539 0.524597 10.7785 0 11.4258 0C12.0731 0 12.5977 0.524597 12.5977 1.17188C12.5977 2.6857 14.6741 5.04753 16.6818 7.33177C17.0471 7.74719 17.4248 8.1768 17.7981 8.60962C18.2208 9.09966 18.1661 9.83963 17.6763 10.2624C17.1863 10.6851 16.4463 10.6306 16.0233 10.1404C15.6573 9.71603 15.2834 9.29054 14.9217 8.87924C13.5459 7.31415 12.2733 5.86647 11.4054 4.48196C10.5515 5.81886 9.32121 7.23038 7.99393 8.75359C5.34554 11.7929 2.34375 15.2378 2.34375 18.3188V18.6328C2.34375 23.6082 6.41785 27.6562 11.4258 27.6562C13.8556 27.6562 16.1128 26.7556 17.7818 25.12C18.2442 24.6671 18.986 24.6746 19.4392 25.1369V25.1369ZM28.8281 20.8008C28.3763 20.8008 27.7631 20.3769 27.1458 19.6378C26.6434 19.0363 25.8897 18.6914 25.0781 18.6914C24.2665 18.6914 23.5128 19.0363 23.0104 19.6378C22.3931 20.3769 21.7799 20.8008 21.3281 20.8008C20.8763 20.8008 20.2631 20.3769 19.6458 19.6378C19.1434 19.0363 18.3897 18.6914 17.5781 18.6914C16.7665 18.6914 16.0128 19.0363 15.5104 19.6378C14.8931 20.3769 14.2799 20.8008 13.8281 20.8008C13.3763 20.8008 12.7631 20.3769 12.1458 19.6378C11.6434 19.0363 10.8897 18.6914 10.0781 18.6914C9.26651 18.6914 8.5128 19.0363 8.01041 19.6378C7.39311 20.3769 6.77994 20.8008 6.32812 20.8008C5.68085 20.8008 5.15625 21.3254 5.15625 21.9727C5.15625 22.6199 5.68085 23.1445 6.32812 23.1445C7.52724 23.1445 8.69843 22.4702 9.80919 21.1402C9.86435 21.0745 9.96483 21.0352 10.0781 21.0352C10.1914 21.0352 10.2919 21.0745 10.3471 21.1404C11.4578 22.4702 12.629 23.1445 13.8281 23.1445C15.0272 23.1445 16.1984 22.4702 17.3092 21.1402C17.3643 21.0745 17.4648 21.0352 17.5781 21.0352C17.6914 21.0352 17.7919 21.0745 17.8471 21.1404C18.9578 22.4702 20.129 23.1445 21.3281 23.1445C22.5272 23.1445 23.6984 22.4702 24.8092 21.1402C24.8643 21.0745 24.9648 21.0352 25.0781 21.0352C25.1914 21.0352 25.2919 21.0745 25.3471 21.1404C26.4578 22.4702 27.629 23.1445 28.8281 23.1445C29.4754 23.1445 30 22.6199 30 21.9727C30 21.3254 29.4754 20.8008 28.8281 20.8008V20.8008ZM15.5104 13.7785C14.8931 14.5175 14.2799 14.9414 13.8281 14.9414C13.1808 14.9414 12.6562 15.466 12.6562 16.1133C12.6562 16.7606 13.1808 17.2852 13.8281 17.2852C15.0272 17.2852 16.1984 16.6109 17.3092 15.2808C17.3643 15.2151 17.4648 15.1758 17.5781 15.1758C17.6914 15.1758 17.7919 15.2151 17.8471 15.2811C18.9578 16.6109 20.129 17.2852 21.3281 17.2852C22.5272 17.2852 23.6984 16.6109 24.8092 15.2808C24.8643 15.2151 24.9648 15.1758 25.0781 15.1758C25.1914 15.1758 25.2919 15.2151 25.3471 15.2811C26.4578 16.6109 27.629 17.2852 28.8281 17.2852C29.4754 17.2852 30 16.7606 30 16.1133C30 15.466 29.4754 14.9414 28.8281 14.9414C28.3763 14.9414 27.7631 14.5175 27.1458 13.7785C26.6434 13.177 25.8897 12.832 25.0781 12.832C24.2665 12.832 23.5128 13.177 23.0104 13.7785C22.3931 14.5175 21.7799 14.9414 21.3281 14.9414C20.8763 14.9414 20.2631 14.5175 19.6458 13.7785C19.1434 13.177 18.3897 12.832 17.5781 12.832C16.7665 12.832 16.0128 13.177 15.5104 13.7785V13.7785Z" fill="white"/>
</g>
<defs>
<clipPath id="clip0">
<rect width="30" height="30" fill="white"/>
</clipPath>
</defs>
</svg>
